<?xml version="1.0" standalone="no"?>
<!DOCTYPE svg PUBLIC "-//W3C//DTD SVG 1.1//EN" "http://www.w3.org/Graphics/SVG/1.1/DTD/svg11.dtd" >
<svg xmlns="http://www.w3.org/2000/svg">
<metadata>Generated by IcoMoon</metadata>
<defs>
<font id="icomoon" horiz-adv-x="1024">
<font-face units-per-em="1024" ascent="960" descent="-64" />
<missing-glyph horiz-adv-x="1024" />
<glyph unicode="&#x20;" horiz-adv-x="512" d="" />
<glyph unicode="&#xe900;" glyph-name="account-login" d="M512 256l256 192-256 192v-128h-512v-128h512v-128zM384 896v-128h512v-640h-512v-128h640v896h-640z" />
<glyph unicode="&#xe901;" glyph-name="calendar" d="M1024 822.4c-3.2 16-12.8 25.6-28.8 32-9.6 3.2-19.2 6.4-28.8 6.4-44.8 0-92.8 0-137.6 0h-44.8v32c0 6.4 0 12.8 0 19.2 0 16-12.8 28.8-28.8 28.8 0 0 0 0 0 0-16 0-28.8-12.8-28.8-25.6 0 0 0 0 0-3.2v-51.2h-425.6v51.2c0 12.8-9.6 25.6-22.4 28.8-16 0-32-6.4-35.2-22.4 0-3.2-3.2-9.6 0-12.8v-48h-80c-35.2 0-67.2 0-102.4 0v0c-28.8 6.4-54.4-12.8-60.8-38.4v-825.6c6.4-16 19.2-32 38.4-38.4h950.4c16 6.4 32 19.2 38.4 38.4v822.4l-3.2 6.4zM60.8 800h902.4v-140.8h-902.4v140.8zM963.2 598.4c0-192 0-387.2 0-579.2v0c0 0 0 0-3.2 0-137.6 0-275.2 0-409.6 0h-374.4c-38.4 0-76.8 0-115.2 0 0 0 0 0 0 0v0c0 156.8 0 316.8 0 473.6v108.8h137.6c252.8-3.2 508.8-3.2 764.8-3.2 0 0 0 0 0 0s0 0 0 0zM691.2 460.8l-204.8-204.8-80 80c-12.8 12.8-32 12.8-44.8 0s-12.8-32 0-44.8l102.4-102.4c12.8-12.8 32-12.8 44.8 0l227.2 227.2c12.8 12.8 12.8 32 0 44.8s-32 12.8-44.8 0z" />
<glyph unicode="&#xe902;" glyph-name="clock" d="M896 758.4c-83.2 83.2-195.2 128-310.4 128-243.2 0-438.4-195.2-438.4-438.4 0 0 0 0 0 0h-147.2l188.8-188.8 3.2-9.6 195.2 198.4h-144c0 188.8 153.6 342.4 342.4 342.4s342.4-150.4 342.4-342.4c0-188.8-153.6-342.4-342.4-342.4-89.6 0-179.2 35.2-243.2 99.2l-70.4-70.4c172.8-172.8 448-172.8 620.8 0 172.8 176 172.8 451.2 3.2 624zM537.6 643.2v-243.2l208-124.8 35.2 60.8-172.8 99.2v208h-70.4z" />
<glyph unicode="&#xe903;" glyph-name="computer-system" d="M556.8 323.2c-19.2 0-35.2-16-35.2-35.2s16-35.2 35.2-35.2c19.2 0 35.2 16 35.2 35.2s-16 35.2-35.2 35.2c0 0 0 0 0 0zM169.6 188.8c-19.2 0-35.2-16-35.2-35.2s16-35.2 35.2-35.2c19.2 0 35.2 16 35.2 35.2s-16 35.2-35.2 35.2zM262.4 505.6c0 0 0 0 0 0h-182.4c-44.8 0-80-35.2-80-76.8 0 0 0 0 0 0v-316.8c0-44.8 35.2-80 76.8-80 0 0 0 0 0 0h182.4c44.8 0 80 35.2 80 76.8 0 0 0 0 0 0v316.8c3.2 44.8-32 80-76.8 80zM272 105.6c0-6.4-3.2-9.6-9.6-12.8 0 0-3.2 0-3.2 0h-179.2c-6.4 0-9.6 3.2-9.6 9.6 0 0 0 0 0 3.2v320c0 6.4 3.2 9.6 9.6 9.6 0 0 0 0 3.2 0h182.4c6.4 0 9.6-3.2 9.6-9.6 0 0 0 0 0-3.2v-316.8zM934.4 377.6c0 3.2 0 3.2 0 0 0 19.2-12.8 35.2-32 35.2 0 0 0 0-3.2 0h-502.4c-19.2 0-35.2-16-35.2-35.2s16-35.2 35.2-35.2h499.2c22.4 3.2 35.2 19.2 38.4 35.2zM947.2 870.4c-3.2 0-3.2 0 0 0h-777.6c-41.6 0-76.8-35.2-80-80 0 0 0 0 0 0v-227.2c0-19.2 16-35.2 35.2-35.2s35.2 16 35.2 32c0 0 0 0 0 0v230.4c0 3.2 3.2 9.6 9.6 9.6 0 0 3.2 0 3.2 0h774.4c6.4 0 9.6-3.2 9.6-9.6 0 0 0-3.2 0-3.2v-547.2c0-6.4-3.2-9.6-9.6-9.6 0 0-3.2 0-3.2 0h-547.2c-19.2 0-35.2-16-32-35.2 0-19.2 16-32 32-32h35.2v-57.6c0-6.4-3.2-9.6-9.6-9.6 0 0 0 0-3.2 0h-22.4c-19.2 0-35.2-16-35.2-35.2s16-35.2 35.2-35.2h320c19.2 0 35.2 16 35.2 35.2s-16 35.2-35.2 35.2h-22.4c-6.4 0-9.6 3.2-9.6 9.6 0 0 0 3.2 0 3.2v57.6h262.4c44.8 0 80 35.2 80 76.8 0 0 0 0 0 0v547.2c-3.2 41.6-38.4 76.8-80 80zM499.2 96c0 3.2 0 6.4 0 9.6v57.6h112v-57.6c0-3.2 0-6.4 0-9.6h-112z" />
<glyph unicode="&#xe904;" glyph-name="copy" d="M860.8 774.4h-512c-51.2 0-92.8-41.6-92.8-92.8v-652.8c0-51.2 41.6-92.8 92.8-92.8h512c51.2 0 92.8 41.6 92.8 92.8v652.8c0 51.2-41.6 92.8-92.8 92.8zM860.8 28.8h-512v652.8h512v-652.8zM720 960h-556.8c-51.2 0-92.8-41.6-92.8-92.8v-652.8h92.8v652.8h560v92.8z" />
<glyph unicode="&#xe905;" glyph-name="files-folder" d="M982.4 83.2l-41.6 41.6c-9.6 9.6-9.6 22.4 0 32l22.4 22.4c9.6 9.6 9.6 22.4 0 28.8-3.2 3.2-6.4 6.4-9.6 6.4l-105.6 22.4c-9.6 3.2-19.2 12.8-19.2 22.4v425.6c0 19.2-16 35.2-35.2 35.2h-60.8c-12.8 0-22.4 9.6-22.4 22.4v60.8c0 12.8-6.4 22.4-16 32l-179.2 118.4c-12.8 3.2-19.2 6.4-25.6 6.4h-300.8c-19.2 0-38.4-16-38.4-35.2v-179.2c0-12.8-9.6-22.4-22.4-22.4h-60.8c-19.2-3.2-35.2-19.2-35.2-38.4v-544c0-19.2 16-38.4 35.2-38.4h601.6c9.6 0 19.2-6.4 22.4-19.2l22.4-108.8c3.2-9.6 12.8-19.2 22.4-16 3.2 0 6.4 3.2 9.6 6.4l22.4 22.4c9.6 9.6 22.4 9.6 32 0l41.6-41.6c12.8-12.8 38.4-12.8 51.2 0l83.2 83.2c19.2 16 19.2 41.6 6.4 54.4zM704 563.2v60.8c0 12.8 9.6 22.4 22.4 22.4s22.4-9.6 22.4-22.4c0 0 0 0 0 0v-60.8c0-12.8-9.6-22.4-22.4-22.4-9.6 0-22.4 9.6-22.4 22.4 0 0 0 0 0 0zM224 864c0 12.8 9.6 22.4 22.4 22.4h179.2c12.8 0 22.4-9.6 22.4-22.4v-60.8c0-19.2 16-35.2 35.2-38.4v0h124.8c12.8 0 22.4-9.6 22.4-22.4v-179.2c0-12.8-9.6-22.4-22.4-22.4h-214.4c-6.4 0-12.8 3.2-16 6.4l-41.6 41.6c-6.4 6.4-16 9.6-25.6 9.6h-60.8c-12.8 0-22.4 9.6-22.4 22.4v243.2zM128 646.4c12.8 0 22.4-9.6 22.4-22.4s-9.6-22.4-22.4-22.4c0 0 0 0 0 0-12.8 0-22.4 9.6-22.4 22.4s9.6 22.4 22.4 22.4zM742.4 265.6c-6.4-3.2-12.8-6.4-19.2-6.4l-16 3.2c-19.2 3.2-38.4-9.6-44.8-28.8 0-3.2 0-9.6 0-16v0l3.2-16c3.2-12.8-6.4-25.6-19.2-28.8 0 0-3.2 0-3.2 0h-515.2c-12.8 0-22.4 9.6-22.4 22.4v304c0 12.8 9.6 22.4 22.4 22.4h153.6c6.4 0 12.8-3.2 16-6.4l41.6-41.6c6.4-6.4 16-9.6 25.6-9.6h358.4c12.8 0 22.4-9.6 22.4-22.4v-160c6.4-6.4 3.2-12.8-3.2-16zM886.4 41.6c-9.6-9.6-22.4-9.6-32 0 0 0 0 0 0 0l-64 64c-3.2 3.2-6.4 3.2-9.6 0l-12.8-16-19.2 89.6 89.6-19.2-16-16c-3.2-3.2-3.2-6.4 0-9.6 0 0 0 0 0 0l64-64c9.6-6.4 9.6-19.2 0-28.8v0z" />
<glyph unicode="&#xe906;" glyph-name="left-arrow" d="M1001.6 470.4h-928l284.8 284.8c6.4 9.6 6.4 19.2 0 28.8s-22.4 9.6-28.8 0l-320-320c-9.6-9.6-9.6-22.4 0-28.8l320-320c0 0 0 0 0 0 9.6-6.4 22.4-6.4 28.8 0 6.4 9.6 6.4 22.4 0 28.8l-284.8 284.8h931.2c12.8 0 22.4 9.6 22.4 22.4s-12.8 19.2-25.6 19.2z" />
<glyph unicode="&#xe907;" glyph-name="list" d="M441.6 275.2l-89.6 89.6-54.4-54.4 147.2-144 275.2 275.2-54.4 54.4-224-220.8zM825.6 803.2h-108.8c-12.8 16-32 28.8-54.4 35.2-19.2 6.4-32 19.2-38.4 38.4-19.2 64-83.2 99.2-147.2 80-38.4-12.8-70.4-41.6-80-80-6.4-19.2-19.2-32-38.4-38.4s-38.4-19.2-51.2-35.2h-108.8c-44.8 0-80-35.2-80-80v-710.4c0-44.8 35.2-80 80-80h630.4c44.8 0 80 35.2 80 80v710.4c-3.2 44.8-38.4 80-83.2 80zM512 880c22.4 0 38.4-19.2 38.4-38.4s-16-38.4-38.4-38.4c-22.4 0-38.4 19.2-38.4 38.4s16 38.4 38.4 38.4zM825.6 16h-627.2v707.2h80v-80h473.6v80h80v-707.2z" />
<glyph unicode="&#xe908;" glyph-name="report" d="M512 960c0 0 0 0 0 0-281.6 0-512-230.4-512-512s230.4-512 512-512 512 230.4 512 512c0 281.6-230.4 512-512 512zM512 16c0 0 0 0 0 0-240 0-432 192-432 432s192 432 432 432 432-192 432-432c0-240-192-432-432-432zM870.4 553.6c0 22.4-19.2 38.4-38.4 38.4h-150.4c-22.4 0-41.6-19.2-41.6-41.6s19.2-41.6 41.6-41.6h54.4l-115.2-115.2-185.6 185.6c-16 16-41.6 16-57.6 0l-214.4-214.4c-16-16-16-41.6 0-57.6s41.6-16 57.6 0l185.6 185.6 185.6-185.6c16-16 41.6-16 57.6 0l144 144v-54.4c0-22.4 19.2-41.6 41.6-41.6s41.6 19.2 41.6 41.6l-6.4 156.8z" />
<glyph unicode="&#xe909;" glyph-name="right-arrow" d="M1017.6 464l-320 320c-9.6 6.4-22.4 6.4-28.8 0-6.4-9.6-6.4-19.2 0-28.8l284.8-284.8h-931.2c-12.8 0-22.4-9.6-22.4-22.4s9.6-22.4 22.4-22.4h931.2l-284.8-284.8c-9.6-6.4-9.6-22.4 0-28.8 6.4-9.6 22.4-9.6 28.8 0 0 0 0 0 0 0l320 320c9.6 9.6 9.6 22.4 0 32z" />
<glyph unicode="&#xe90a;" glyph-name="synchronize" d="M684.8 457.6c-19.2 0-32-12.8-32-32 0 0 0 0 0 0v-67.2l-19.2 12.8c-92.8 67.2-220.8 51.2-288-41.6s-51.2-220.8 41.6-288c67.2-51.2 156.8-54.4 227.2-12.8 16 9.6 19.2 28.8 12.8 44.8-9.6 16-28.8 19.2-44.8 12.8-67.2-38.4-153.6-16-195.2 51.2-38.4 67.2-16 153.6 51.2 195.2 57.6 35.2 131.2 22.4 176-28.8l16-19.2h-80c-19.2 0-32-12.8-32-32s12.8-32 32-32c0 0 0 0 0 0h131.2c19.2 0 32 16 32 32v172.8c6.4 19.2-9.6 32-28.8 32zM899.2 579.2l-6.4 3.2v6.4c-19.2 160-169.6 304-310.4 304-89.6-3.2-172.8-41.6-230.4-108.8l-3.2-6.4-32 9.6c-3.2 0-3.2 0-6.4 0s-6.4 0-9.6 0c-16 3.2-35.2 0-51.2-3.2-3.2 0-6.4 0-6.4-3.2l-9.6 16 3.2-9.6h-3.2c-6.4-3.2-6.4-3.2-9.6-6.4l-32-12.8c0 0-3.2-3.2-3.2-3.2l-35.2-35.2-22.4-35.2h-12.8l9.6-3.2v-6.4h-12.8l9.6-3.2v-3.2h-12.8l9.6-3.2c0-3.2 0-3.2 0-6.4s-3.2-6.4-3.2-9.6c0-3.2 0-6.4-3.2-9.6 0-6.4 0-12.8-3.2-16v-6.4l-6.4-3.2c-64-41.6-105.6-118.4-105.6-198.4 0-102.4 67.2-211.2 150.4-246.4l6.4-3.2h51.2c19.2 0 32 12.8 32 32s-12.8 32-32 32c0 0 0 0 0 0h-41.6c-54.4 32-102.4 115.2-102.4 185.6 3.2 64 38.4 124.8 96 153.6l19.2 9.6v19.2c0 0 0 3.2 0 3.2v9.6c0 44.8 25.6 83.2 67.2 96 25.6 9.6 51.2 6.4 76.8-3.2l6.4-3.2c0 0 3.2-3.2 3.2-3.2 28.8-19.2 44.8-51.2 44.8-83.2 0-19.2 12.8-32 32-32s32 12.8 32 32c0 0 0 0 0 0 0 38.4-12.8 76.8-41.6 108.8l-6.4 6.4 6.4 6.4c51.2 54.4 112 83.2 179.2 83.2 102.4 0 214.4-105.6 243.2-224l3.2-12.8h-12.8c-12.8 0-22.4 0-35.2-3.2h-3.2c-19.2-3.2-28.8-19.2-25.6-35.2s19.2-28.8 35.2-25.6h3.2c19.2 3.2 41.6 3.2 60.8 0 3.2 0 6.4 0 9.6 0 64-12.8 105.6-67.2 105.6-144 3.2-64-38.4-121.6-99.2-140.8h-41.6c-19.2 0-32-16-32-32s12.8-32 32-32h51.2c92.8 22.4 160 108.8 156.8 204.8-6.4 92.8-54.4 169.6-131.2 195.2z" />
<glyph unicode="&#xe90b;" glyph-name="timer-clock" d="M944 409.6c-9.6 86.4-41.6 169.6-99.2 236.8v0l41.6 41.6c16 16 16 41.6 0 57.6s-41.6 16-54.4 0l-41.6-41.6c-70.4 54.4-150.4 86.4-240 96v80h38.4c22.4 0 38.4 19.2 38.4 38.4 0 22.4-19.2 38.4-38.4 38.4h-156.8c-22.4 0-38.4-19.2-38.4-38.4 0-22.4 19.2-38.4 38.4-38.4h38.4v-80c-236.8-22.4-412.8-233.6-390.4-470.4s233.6-412.8 470.4-390.4c240 19.2 416 230.4 393.6 470.4zM512 16c-195.2 0-352 156.8-352 352s156.8 352 352 352c195.2 0 352-156.8 352-352s-156.8-352-352-352zM697.6 553.6c0 0 0 0 0 0-16 16-41.6 16-57.6 0l-156.8-156.8c-16-16-16-41.6 0-57.6s41.6-16 57.6 0l156.8 156.8c0 0 0 0 0 0 16 16 16 41.6 0 57.6v0z" />
<glyph unicode="&#xe90c;" horiz-adv-x="866" d="M858.214 362.667c0-235.641-191.025-426.667-426.667-426.667s-426.667 191.025-426.667 426.667c0 235.641 191.025 426.667 426.667 426.667s426.667-191.025 426.667-426.667z" />
<glyph unicode="&#xe90d;" horiz-adv-x="866" d="M765.713 645.257l40.175 40.141c7.226 7.23 11.695 17.216 11.695 28.245 0 22.068-17.889 39.957-39.957 39.957-11.038 0-21.031-4.476-28.262-11.711l-40.141-40.141c-64.273 53.917-145.59 89.484-234.828 97.701l-1.682 0.125v80.521h38.605c22.065 0 39.953 17.888 39.953 39.953s-17.888 39.953-39.953 39.953h-157.013c-22.065 0-39.953-17.888-39.953-39.953s17.888-39.953 39.953-39.953h38.605v-80.521c-221.168-21.129-392.763-205.971-392.763-430.892 0-238.997 193.745-432.742 432.742-432.742s432.742 193.745 432.742 432.742c0 105.494-37.749 202.171-100.476 277.261l0.558-0.687zM432.742 15.906c-194.87 0.019-352.836 157.997-352.836 352.87 0 194.885 157.985 352.87 352.87 352.87s352.87-157.985 352.87-352.87v0c-0.233-194.803-158.099-352.657-352.884-352.87h-0.021z" />
<glyph unicode="&#xe90e;" horiz-adv-x="866" d="M617.95 553.882c7.231-7.228 11.703-17.214 11.703-28.245s-4.473-21.018-11.703-28.245l-157.013-157.013c-7.229-7.229-17.215-11.7-28.245-11.7-22.061 0-39.945 17.884-39.945 39.945 0 11.030 4.471 21.017 11.7 28.245v0l157.013 157.013c7.228 7.231 17.214 11.703 28.245 11.703s21.018-4.473 28.245-11.703v0z" />
<glyph unicode="&#xe90f;" horiz-adv-x="1997" d="M307.2 755.2h1331.2c169.662 0 307.2-137.538 307.2-307.2s-137.538-307.2-307.2-307.2h-1331.2c-169.662 0-307.2 137.538-307.2 307.2s137.538 307.2 307.2 307.2z" />
<glyph unicode="&#xe910;" horiz-adv-x="1997" d="M1996.8 448c0-282.77-229.23-512-512-512s-512 229.23-512 512c0 282.77 229.23 512 512 512s512-229.23 512-512z" />
<glyph unicode="&#xe911;" horiz-adv-x="1267" d="M404.211 690.526h700.632c89.296 0 161.684-72.388 161.684-161.684s-72.388-161.684-161.684-161.684h-700.632c-89.296 0-161.684 72.388-161.684 161.684s72.388 161.684 161.684 161.684z" />
<glyph unicode="&#xe912;" horiz-adv-x="1267" d="M781.474 528.842c0-148.826-120.647-269.474-269.474-269.474s-269.474 120.647-269.474 269.474c0 148.826 120.647 269.474 269.474 269.474s269.474-120.647 269.474-269.474z" />
<glyph unicode="&#xe913;" glyph-name="arrow-down" d="M512 355.977l-382.942 382.874c-10.145 10.094-24.132 16.334-39.578 16.334s-29.433-6.24-39.58-16.337l0.002 0.002-33.519-33.553c-10.113-10.143-16.365-24.138-16.365-39.595s6.253-29.452 16.367-39.596l455.85-455.884c10.201-10.096 24.238-16.333 39.731-16.333s29.53 6.237 39.736 16.338l455.436 455.402c10.113 10.143 16.365 24.138 16.365 39.595s-6.253 29.452-16.367 39.596l0.001-0.001-33.519 33.553c-10.139 10.121-24.136 16.379-39.595 16.379s-29.456-6.259-39.595-16.38l0.001 0.001z" />
<glyph unicode="&#xe914;" glyph-name="arrow-left" d="M406.869 448.478l382.874-382.771c10.094-10.145 16.334-24.132 16.334-39.578s-6.24-29.433-16.337-39.58l0.002 0.002-33.553-33.519c-10.143-10.113-24.138-16.365-39.595-16.365s-29.452 6.253-39.596 16.367l-455.884 455.713c-10.096 10.201-16.333 24.238-16.333 39.731s6.237 29.53 16.338 39.736l455.47 455.436c10.143 10.113 24.138 16.365 39.595 16.365s29.452-6.253 39.596-16.367l-0.001 0.001 33.553-33.519c10.121-10.139 16.379-24.136 16.379-39.595s-6.259-29.456-16.38-39.595l0.001 0.001z" />
<glyph unicode="&#xe915;" glyph-name="arrow-right" d="M604.023 448.512l-382.874-382.942c-10.094-10.145-16.334-24.132-16.334-39.578s6.24-29.433 16.337-39.58l-0.002 0.002 33.553-33.519c10.143-10.113 24.138-16.365 39.595-16.365s29.452 6.253 39.596 16.367l455.884 455.85c10.096 10.201 16.333 24.238 16.333 39.731s-6.237 29.53-16.338 39.736l-455.402 455.436c-10.143 10.113-24.138 16.365-39.595 16.365s-29.452-6.253-39.596-16.367l0.001 0.001-33.553-33.519c-10.121-10.139-16.379-24.136-16.379-39.595s6.259-29.456 16.38-39.595l-0.001 0.001z" />
<glyph unicode="&#xe916;" glyph-name="arrow-up" d="M505.207 553.131l382.942-382.874c10.145-10.094 24.132-16.334 39.578-16.334s29.433 6.24 39.58 16.337l-0.002-0.002 33.519 33.553c10.113 10.143 16.365 24.138 16.365 39.595s-6.253 29.452-16.367 39.596l-455.85 455.884c-10.201 10.096-24.238 16.333-39.731 16.333s-29.53-6.237-39.736-16.338l-455.436-455.402c-10.113-10.143-16.365-24.138-16.365-39.595s6.253-29.452 16.367-39.596l-0.001 0.001 33.519-33.553c10.139-10.121 24.136-16.379 39.595-16.379s29.456 6.259 39.595 16.38l-0.001-0.001z" />
<glyph unicode="&#xe917;" glyph-name="bell" d="M865.758 169.131h-29.696v271.189c-0.437 149.862-98.834 276.625-234.503 319.655l-2.382 0.652c16.055 20.512 25.77 46.662 25.839 75.077v0.016c0.002 0.244 0.003 0.532 0.003 0.82 0 68.657-55.657 124.314-124.314 124.314s-124.314-55.657-124.314-124.314c0-28.711 9.733-55.15 26.081-76.195l-0.21 0.281c-137.834-43.811-236.052-170.412-236.612-320.036v-271.358h-21.094c-0.358 0.011-0.778 0.017-1.2 0.017-23.319 0-42.223-18.904-42.223-42.223s18.904-42.223 42.223-42.223c0.422 0 0.843 0.006 1.262 0.018l-0.061-0.001h225.963v-16.384c0.116-73.045 59.319-132.223 132.362-132.301h0.008c73.021 0.116 132.184 59.28 132.301 132.29v16.395h230.434c0.358-0.011 0.778-0.017 1.2-0.017 23.319 0 42.223 18.904 42.223 42.223s-18.904 42.223-42.223 42.223c-0.422 0-0.843-0.006-1.262-0.018l0.061 0.001zM500.531 879.104c0.010 0 0.022 0 0.034 0 23.885 0 43.247-19.362 43.247-43.247 0-0.012 0-0.024 0-0.036v0.002c-0.304-23.773-19.505-42.962-43.254-43.247h-0.027c-23.894 0-43.264 19.37-43.264 43.264s19.37 43.264 43.264 43.264v0zM550.741 68.335c-0.116-26.345-21.442-47.671-47.776-47.787h-0.011c-26.33 0.154-47.633 21.457-47.787 47.772v16.399h95.573zM751.479 440.388v-271.155h-501.385v271.428c-0.108 2.751-0.17 5.98-0.17 9.223 0 138.557 112.323 250.88 250.88 250.88 136.483 0 247.512-108.986 250.805-244.677l0.006-0.306c0.171-5.188 0.171-10.24 0-15.531z" />
<glyph unicode="&#xe918;" glyph-name="calendar-1" d="M114.654-72.021c-63.294 0.097-114.576 51.391-114.654 114.68v720.767c0.058 63.305 51.352 114.61 114.646 114.688h57.351v81.886h65.502v-81.92h556.988v81.92h65.502v-81.92h57.31c63.317-0.058 114.63-51.371 114.688-114.682v-720.765c-0.078-63.309-51.379-114.61-114.681-114.688h-0.007zM65.536 42.667c0.039-27.118 22.002-49.094 49.112-49.152h802.685c27.152 0.019 49.162 22.006 49.22 49.146v548.699h-901.12zM65.536 763.426v-106.462h901.12v106.462c-0.058 27.146-22.068 49.133-49.218 49.152h-57.278v-81.92h-65.502v81.92h-556.988v-81.92h-65.502v81.92h-57.344c-0.030 0-0.066 0-0.102 0-27.153 0-49.167-22.002-49.186-49.15v-0.002zM247.159 183.398v70.588h353.007v-70.588zM247.159 324.608v70.588h494.182v-70.588z" />
<glyph unicode="&#xe919;" glyph-name="calendar-2" d="M901.12 880.265h-47.787v79.735h-79.838v-79.735h-526.302v79.735h-79.735v-79.735h-47.991c-65.965-0.155-119.389-53.627-119.467-119.596v-701.788c0.155-65.917 53.549-119.312 119.452-119.467h781.668c65.917 0.155 119.312 53.549 119.467 119.452v701.796c-0.077 65.976-53.502 119.448-119.452 119.603h-0.015zM940.954 58.88c-0.039-21.984-17.85-39.795-39.83-39.834h-781.657c-21.94 0.097-39.693 17.886-39.731 39.83v526.34h861.218zM940.954 664.917h-861.218v95.744c0.019 21.963 17.779 39.771 39.722 39.868h47.796v-79.77h79.94v79.77h526.302v-79.77h79.838v79.77h47.787c21.996-0.039 39.814-17.869 39.834-39.866v-0.002zM150.255 510.362h97.041v-97.041h-97.041v97.041zM295.834 510.362h97.041v-97.041h-97.041v97.041zM441.412 510.362h97.041v-97.041h-97.041v97.041zM586.957 510.362h97.041v-97.041h-97.041v97.041zM732.535 510.362h97.041v-97.041h-97.041v97.041zM150.255 364.783h97.041v-97.041h-97.041v97.041zM295.834 364.783h97.041v-97.041h-97.041v97.041zM441.412 364.783h97.041v-97.041h-97.041v97.041zM586.957 364.783h97.041v-97.041h-97.041v97.041zM150.255 219.204h97.041v-97.041h-97.041v97.041zM295.834 219.204h97.041v-97.041h-97.041v97.041zM441.412 219.204h97.041v-97.041h-97.041v97.041zM586.957 219.204h97.041v-97.041h-97.041v97.041zM732.535 364.783h97.041v-97.041h-97.041v97.041z" />
<glyph unicode="&#xe91a;" glyph-name="clock1" d="M512 960c-282.77 0-512-229.23-512-512s229.23-512 512-512c282.77 0 512 229.23 512 512v0c-0.33 282.637-229.363 511.67-511.968 512h-0.032zM512 44.954c-222.596 0-403.046 180.45-403.046 403.046s180.45 403.046 403.046 403.046c222.596 0 403.046-180.45 403.046-403.046v0c-0.272-222.487-180.559-402.775-403.020-403.046h-0.026zM778.82 463.804h-230.093v276.651c0 23.281-18.873 42.155-42.155 42.155s-42.155-18.873-42.155-42.155v-318.805c0-23.269 18.854-42.135 42.119-42.155h272.249c23.281 0 42.155 18.873 42.155 42.155s-18.873 42.155-42.155 42.155v0z" />
<glyph unicode="&#xe91c;" glyph-name="complete-task" d="M811.315 802.475h-109.227c-14.422 16.093-33.048 28.14-54.155 34.432l-0.834 0.213c-18.14 5.306-32.116 19.36-37.214 37.164l-0.094 0.382c-14.701 49.732-59.965 85.403-113.562 85.403s-98.861-35.671-113.349-84.567l-0.213-0.836c-5.216-18.195-19.214-32.249-36.992-37.45l-0.384-0.096c-21.874-6.575-40.428-18.662-54.681-34.664l-0.103-0.118h-109.227c-0.030 0-0.066 0-0.103 0-43.461 0-78.702-35.193-78.78-78.636v-708.889c0-0.010 0-0.022 0-0.034 0-43.509 35.271-78.78 78.78-78.78h630.101c43.509 0 78.78 35.271 78.78 78.78v0 708.915c0 43.497-35.251 78.76-78.744 78.78h-0.002zM496.742 881.22c0.010 0 0.022 0 0.034 0 21.754 0 39.39-17.635 39.39-39.39s-17.635-39.39-39.39-39.39c-21.754 0-39.39 17.635-39.39 39.39 0 0.012 0 0.024 0 0.036v-0.002c0.019 21.728 17.628 39.336 39.354 39.356h0.002zM811.315 14.78h-630.135v708.915h78.78v-78.746h472.576v78.746h78.78zM646.007 495.718l-218.999-218.999-91.409 89.463-55.706-55.74 147.081-145.101 274.705 274.705z" />
<glyph unicode="&#xe91d;" glyph-name="coretal" d="M292.352 289.075c9.145-6.599 19.553-12.898 30.46-18.348l1.318-0.596c-2.191 11.286-6.477 21.289-12.464 30.037l0.176-0.273c-24.507 40.508-39.009 89.446-39.009 141.772 0 128.069 86.872 235.847 204.903 267.623l1.939 0.444c22.967 7.162 49.374 11.287 76.744 11.287 80.113 0 151.971-35.343 200.833-91.289l0.269-0.314c7.407-7.851 23.893-16.145 31.744-13.107 68.71 26.214 136.533 54.955 203.742 82.671-0.201 2.516-0.637 4.841-1.29 7.072l0.062-0.245c-90.284 153.324-254.522 254.594-442.413 254.594-254.205 0-465.115-185.368-504.932-428.306l-0.401-2.961c-0.211-1.766-0.331-3.811-0.331-5.884 0-13.512 5.115-25.829 13.513-35.121l-0.040 0.045c77.346-67.55 156.297-133.291 235.179-199.1zM811.349 280.064c-8.499 3.038-26.419-6.451-33.485-15.326-52.105-69.958-134.58-114.78-227.525-114.78-20.808 0-41.092 2.247-60.621 6.51l1.87-0.342c-117.712 22.203-220.852 73.559-305.022 146.276l0.826-0.697c-48.811 39.39-94.822 82.261-145.101 126.293-19.217-208.828 177.801-440.764 407.45-483.806 225.28-42.257 494.933 86.767 546.953 263.646-61.508 24.337-122.88 49.766-185.344 72.226zM529.681 589.38c20.765 7.138 44.691 11.259 69.58 11.259 66.034 0 125.293-29.009 165.728-74.979l0.212-0.245c7.202-7.27 21.743-15.838 28.945-13.175 55.296 20.48 109.602 43.281 163.84 65.331-9.694 39.663-28.535 46.285-61.44 29.901-34.577-17.067-72.090-28.331-107.076-44.749-5.813-4.254-13.104-6.807-20.991-6.807-14.536 0-27.047 8.67-32.644 21.121l-0.091 0.226c-34.179 51.167-88.501 86.583-151.372 94.942l-1.101 0.12c-9.852 1.524-21.216 2.394-32.783 2.394-82.899 0-155.357-44.702-194.584-111.316l-0.575-1.056c-19.165-32.113-30.496-70.826-30.496-112.185 0-49.331 16.12-94.897 43.379-131.718l-0.425 0.6c-1.053 12.211-1.653 26.423-1.653 40.776 0 17.676 0.91 35.139 2.686 52.345l-0.18-2.155c13.942 87.025 77.066 156.289 159.489 179.006l1.552 0.365z" />
<glyph unicode="&#xe91e;" glyph-name="dashboard" d="M634.607-50.62c-40.687 0.019-73.67 32.978-73.728 73.654v189.446c0.058 40.682 33.041 73.64 73.726 73.66h315.804c40.658-0.058 73.602-33.002 73.66-73.654v-189.548c-0.058-40.658-33.002-73.602-73.654-73.66h-0.006zM624.026 212.582v-189.542c0.019-5.792 4.719-10.479 10.513-10.479 0.024 0 0.048 0 0.072 0h315.798c0 0 0 0 0 0 5.794 0 10.494 4.687 10.513 10.477v189.442c0 0 0 0 0 0 0 5.813-4.703 10.528-10.511 10.547h-315.804c-0.020 0-0.044 0-0.068 0-5.832 0-10.562-4.718-10.581-10.546v-0.002zM87.142-50.62c-40.682 0.058-73.64 33.041-73.66 73.726v441.96c0.039 40.672 32.99 73.636 73.654 73.694h315.876c40.67-0.058 73.621-33.021 73.66-73.69v-442.133c-0.019-40.687-32.978-73.67-73.654-73.728h-0.006zM76.595 465.203v-442.129c0-5.825 4.722-10.547 10.547-10.547v0h315.87c5.825 0 10.547 4.722 10.547 10.547v441.993c0 5.825-4.722 10.547-10.547 10.547v0h-315.87c-0.020 0-0.044 0-0.068 0-5.825 0-10.547-4.722-10.547-10.547 0 0 0 0 0 0v0zM634.607 370.483c-40.687 0.019-73.67 32.978-73.728 73.654v442.169c0.058 40.682 33.041 73.64 73.726 73.66h315.804c40.658-0.058 73.602-33.002 73.66-73.654v-442.169c-0.058-40.658-33.002-73.602-73.654-73.66h-0.006zM624.026 886.306v-442.163c0.019-5.829 4.749-10.547 10.581-10.547 0 0 0 0 0 0h315.802c5.81 0.019 10.513 4.734 10.513 10.547 0 0 0 0 0 0v0 442.163c0 0 0 0 0 0 0 5.813-4.703 10.528-10.511 10.547h-315.804c-0.020 0-0.044 0-0.068 0-5.832 0-10.562-4.718-10.581-10.546v-0.002zM87.142 623.104c-40.682 0.058-73.64 33.041-73.66 73.726v189.476c0.058 40.658 33.002 73.602 73.654 73.66h315.876c40.658-0.058 73.602-33.002 73.66-73.654v-189.48c-0.019-40.687-32.978-73.67-73.654-73.728h-0.006zM76.595 886.306v-189.474c0-0.010 0-0.022 0-0.034 0-5.806 4.707-10.513 10.513-10.513 0.012 0 0.024 0 0.036 0h315.868c0.010 0 0.022 0 0.034 0 5.806 0 10.513 4.707 10.513 10.513 0 0.012 0 0.024 0 0.036v-0.002 189.474c0 5.825-4.722 10.547-10.547 10.547v0h-315.87c-0.020 0-0.044 0-0.068 0-5.825 0-10.547-4.722-10.547-10.547 0 0 0 0 0 0v0z" />
<glyph unicode="&#xe91f;" glyph-name="delete" d="M127.556-27.853c17.87-22.119 44.994-36.148 75.394-36.148 0.11 0 0.22 0 0.331 0.001h617.455c30.733 0.112 58.033 14.712 75.439 37.322l0.166 0.224c20.324 23.831 32.689 54.988 32.689 89.033 0 0.895-0.009 1.789-0.026 2.68l0.002-0.134v653.244h81.681c0.222-0.013 0.482-0.021 0.744-0.021 3.447 0 6.59 1.304 8.962 3.444l-0.012-0.010c2.237 2.065 3.634 5.012 3.634 8.286 0 0.207-0.006 0.413-0.017 0.617l0.001-0.028v43.452c0.010 0.179 0.016 0.388 0.016 0.599 0 3.26-1.397 6.193-3.626 8.234l-0.008 0.008c-2.397 2.128-5.571 3.429-9.048 3.429-0.227 0-0.453-0.006-0.677-0.017l0.032 0.001h-236.271l-54.613 119.296c-8.018 16.394-20.462 29.573-35.781 38.275l-0.434 0.227c-14.949 9.742-33.165 15.674-52.742 16.041l-0.097 0.001h-237.466c-19.674-0.359-37.893-6.292-53.228-16.281l0.389 0.238c-15.738-8.895-28.171-22.041-35.953-37.885l-0.228-0.515-54.613-119.467h-236.271c-0.193 0.010-0.419 0.015-0.646 0.015-3.478 0-6.651-1.3-9.062-3.441l0.014 0.012c-2.236-2.065-3.632-5.012-3.632-8.284 0-0.196 0.005-0.39 0.015-0.583l-0.001 0.027v-43.452c-0.013-0.201-0.020-0.435-0.020-0.672 0-3.232 1.386-6.139 3.596-8.161l0.008-0.008c2.397-2.128 5.571-3.429 9.048-3.429 0.227 0 0.453 0.006 0.677 0.017l-0.032-0.001h81.681v-656.077c-0.025-0.951-0.039-2.072-0.039-3.195 0-33.344 12.339-63.807 32.699-87.070l-0.131 0.153zM373.897 881.050c4.67 5.637 11.187 9.6 18.614 10.961l0.193 0.029 237.295 0.205c8.415-1.024 15.714-5.136 20.852-11.151l0.037-0.045 1.229-1.911 41.711-92.979h-363.861zM169.097 718.37h685.841v-653.414c0.002-0.188 0.002-0.409 0.002-0.631 0-10.846-2.158-21.188-6.068-30.62l0.195 0.531c-3.103-8.189-7.389-15.241-12.732-21.345l0.069 0.080c-3.672-4.927-9.219-8.28-15.564-9.002l-0.103-0.010h-617.472c-6.444 0.71-11.987 4.070-15.59 8.95l-0.043 0.061c-5.315 6.026-9.626 13.091-12.574 20.829l-0.157 0.47c-3.694 8.911-5.839 19.26-5.839 30.11 0 0.214 0.001 0.428 0.003 0.642v-0.033zM414.754 632.764h-53.862c-0.238 0.014-0.516 0.022-0.796 0.022-3.979 0-7.589-1.584-10.233-4.155l0.003 0.003c-2.529-2.603-4.088-6.16-4.088-10.081 0-0.308 0.010-0.614 0.029-0.917l-0.002 0.042v-484.898c-0.022-0.296-0.035-0.642-0.035-0.99 0-7.804 6.327-14.131 14.131-14.131 0.349 0 0.694 0.013 1.036 0.037l-0.046-0.003h53.862c0.307-0.024 0.666-0.037 1.027-0.037 7.786 0 14.097 6.311 14.097 14.097 0 0.362-0.014 0.72-0.040 1.075l0.003-0.047v484.898c0.024 0.307 0.037 0.666 0.037 1.027 0 7.786-6.311 14.097-14.097 14.097-0.362 0-0.72-0.014-1.075-0.040l0.047 0.003zM664.849 632.764h-53.862c-0.319 0.026-0.69 0.040-1.064 0.040-7.767 0-14.063-6.296-14.063-14.063 0-0.375 0.015-0.746 0.043-1.113l-0.003 0.049v-484.898c-0.026-0.319-0.040-0.69-0.040-1.064 0-7.767 6.296-14.063 14.063-14.063 0.375 0 0.746 0.015 1.113 0.043l-0.049-0.003h53.862c0.307-0.024 0.666-0.037 1.027-0.037 7.786 0 14.097 6.311 14.097 14.097 0 0.362-0.014 0.72-0.040 1.075l0.003-0.047v484.898c0.019 0.279 0.030 0.605 0.030 0.933 0 3.931-1.575 7.495-4.128 10.094l0.002-0.002c-2.637 2.528-6.224 4.085-10.173 4.085-0.288 0-0.573-0.008-0.857-0.025l0.039 0.002z" />
<glyph unicode="&#xe920;" glyph-name="edit" d="M0 159.232v-210.773h210.773l621.909 621.909-210.773 210.773zM995.089 812.339l-131.243 131.209c-10.186 10.157-24.242 16.437-39.765 16.437s-29.579-6.28-39.767-16.438l-102.843-102.843 210.773-210.773 102.844 102.844c10.167 10.188 16.454 24.251 16.454 39.782s-6.287 29.595-16.455 39.783l0.001-0.001z" />
<glyph unicode="&#xe921;" glyph-name="elapse-time" d="M210.33 870.229c-56.627 0-71.953 22.596-73.694 44.851s23.893 43.418 51.814 44.066c4.676 0 9.387 0.785 14.063 0.785q301.295 0 602.59 0c2.355 0 20.855 0 23.211 0 1.008 0.086 2.181 0.134 3.366 0.134 23.3 0 42.189-18.889 42.189-42.189s-18.889-42.189-42.189-42.189c-2.394 0-4.741 0.199-7.026 0.582l0.247-0.034c-3.174 0-22.562 0-25.941 0 0-8.909 0-17.954 0-26.999 0.702-10.657 1.102-23.104 1.102-35.645 0-39.611-3.993-78.29-11.597-115.656l0.63 3.708c-26.984-92.478-88.289-167.534-168.85-211.971l-1.817-0.919c-13.926-8.294-26.624-19.49-23.586-33.348 4.529-14.62 13.974-26.59 26.362-34.256l0.262-0.151c111.411-67.447 176.060-162.304 177.493-295.458 0.307-30.071 0-60.143 0-85.811 53.146 0 76.459-23.006 74.411-48.333-0.517-23.070-19.341-41.573-42.486-41.573-1.193 0-2.374 0.049-3.542 0.146l0.153-0.010c-197.495 0-419.191-0.205-616.721 0.341-0.603-0.014-1.314-0.022-2.027-0.022-14.411 0-28.049 3.308-40.198 9.205l0.548-0.24c-10.781 6.195-17.925 17.645-17.925 30.764 0 5.37 1.197 10.461 3.339 15.020l-0.091-0.216c4.714 16.23 19.45 27.892 36.909 27.892 0.224 0 0.448-0.002 0.672-0.006h-0.034c5.257 0 10.513 0.683 18.364 1.195 0 23.893 0.751 47.206 0 70.451-5.393 144.043 60.962 247.125 181.589 319.454 31.095 18.637 30.993 45.431 0.239 63.932-88.375 46.935-152.569 129.448-173.913 227.93l-0.406 2.232c-4.668 34.464-7.332 74.299-7.332 114.757 0 2.496 0.010 4.99 0.030 7.481l-0.002-0.382c-0.683 11.162-0.205 22.562-0.205 30.481zM261.803 33.963h488.107c0.019 2.41 0.029 5.259 0.029 8.111 0 53.309-3.733 105.747-10.951 157.065l0.681-5.91c-19.068 81.995-73.116 148.562-145.18 184.221l-1.593 0.713c-28.987 14.146-48.603 43.402-48.603 77.239 0 33.141 18.817 61.887 46.35 76.136l0.478 0.225c26.084 15.082 48.64 31.953 68.996 51.132l-0.183-0.171c52.737 46.289 86.107 113.539 87.004 188.6l0.001 0.157c0 34.645 0 69.257 0 103.902h-484.693c0-19.627-0.819-37.751 0.171-55.808-0.009-1.254-0.014-2.736-0.014-4.219 0-35.675 3.010-70.647 8.789-104.676l-0.514 3.662c19.614-79.064 71.734-143.241 141-178.655l1.541-0.715c30.45-14.068 51.199-44.347 51.199-79.472 0-35.283-20.936-65.676-51.063-79.434l-0.546-0.223c-60.823-32.22-107.728-83.895-133.082-146.592l-0.687-1.922c-26.078-62.43-13.38-127.556-17.237-193.229zM504.695 402.364c15.254-30.387 38.837-54.685 67.758-70.404l0.85-0.423c75.74-40.518 126.394-119.082 126.394-209.477 0-12.965-1.042-25.687-3.047-38.087l0.181 1.36h-383.42c-1.978 11.466-3.109 24.672-3.109 38.142 0 87.932 48.188 164.608 119.596 205.063l1.17 0.61c31.823 16.324 57.137 41.506 73.185 72.288l0.44 0.928zM354.133 651.435h303.787c-15.521-16.699-31.511-32.213-48.267-46.872l-0.748-0.641c-19.797-15.497-43.179-26.487-62.498-42.428-14.379-13.506-27.537-27.897-39.546-43.232l-0.629-0.834c-19.115 17.374-40.038 37.547-62.191 56.32-25.873 21.879-52.873 42.359-79.155 63.693-3.897 4.152-7.443 8.728-10.532 13.622l-0.22 0.373z" />
<glyph unicode="&#xe922;" glyph-name="filters" d="M37.683 665.805h460.049l2.287-8.909c21.345-81.962 94.695-141.486 181.948-141.486s160.603 59.524 181.658 140.18l0.29 1.306 2.287 8.909h120.149c20.812 0 37.683 16.871 37.683 37.683s-16.871 37.683-37.683 37.683v0h-120.149l-2.287 8.977c-21.321 81.996-94.688 141.553-181.965 141.553s-160.644-59.557-181.676-140.248l-0.289-1.305-2.287-8.977h-460.083c-20.812 0-37.683-16.871-37.683-37.683s16.871-37.683 37.683-37.683v0zM602.317 783.053c20.256 20.327 48.277 32.905 79.236 32.905 0.103 0 0.207 0 0.31 0h-0.016c62.209 0 112.64-50.431 112.64-112.64s-50.431-112.64-112.64-112.64v0 0c-62.152 0.076-112.507 50.477-112.507 112.64 0 31.131 12.629 59.312 33.043 79.7l0.001 0.001zM37.683 163.772h120.218l2.287-8.909c21.369-81.928 94.702-141.419 181.931-141.419s160.562 59.491 181.641 140.113l0.29 1.306 2.287 8.909h460.049c20.812 0 37.683 16.871 37.683 37.683s-16.871 37.683-37.683 37.683v0h-460.288l-2.287 8.977c-21.345 81.962-94.695 141.486-181.948 141.486s-160.603-59.524-181.658-140.18l-0.29-1.306-2.287-8.977h-119.979c-20.812 0-37.683-16.871-37.683-37.683s16.871-37.683 37.683-37.683v0zM262.349 281.225c20.265 20.287 48.272 32.837 79.211 32.837 0.1 0 0.201 0 0.301 0h0.223c62.158-0.068 112.521-50.473 112.521-112.64 0-62.209-50.431-112.64-112.64-112.64-0.042 0-0.084 0-0.126 0h0.007c-62.137 0.095-112.473 50.489-112.473 112.64 0 31.148 12.643 59.343 33.077 79.734l0.002 0.002z" />
<glyph unicode="&#xe923;" glyph-name="focus-matrix" d="M1023.488 673.314c0.295 2.966 0.463 6.411 0.463 9.895 0 55.044-41.935 100.294-95.6 105.544l-0.436 0.034c-3.071 0.325-6.634 0.51-10.24 0.51s-7.169-0.185-10.68-0.547l0.44 0.037h-790.357c-3.44 0.402-7.426 0.631-11.465 0.631-25.296 0-48.492-8.989-66.569-23.948l0.175 0.141c-21.267-17.303-35.599-42.42-38.6-70.914l-0.039-0.459c-0.327-3.101-0.513-6.7-0.513-10.342s0.186-7.241 0.55-10.787l-0.037 0.445c-0.41-200.158-0.41-255.522 0-455.373-0.293-2.959-0.46-6.396-0.46-9.872 0-55.222 42.138-100.602 96.014-105.739l0.428-0.033c3.025-0.321 6.534-0.504 10.086-0.504s7.062 0.183 10.52 0.54l-0.433-0.036c113.664 0 299.861 0 413.491 0s263.646 0 376.934 0c3.618-0.375 7.305-0.58 10.889-0.58 54.733 0.127 99.745 41.576 105.499 94.795l0.041 0.471c0.327 3.071 0.513 6.634 0.513 10.24s-0.186 7.169-0.55 10.679l0.037-0.439c0.341 200.192 0.341 255.59-0.102 455.612zM974.711 207.77c0.006-0.297 0.009-0.647 0.009-0.997 0-30.283-23.742-55.020-53.627-56.614l-0.142-0.006c-2.269-0.202-4.909-0.317-7.576-0.317-1.321 0-2.636 0.028-3.943 0.084l0.187-0.006h-209.34v591.258h55.774c55.74 0 118.886 0.41 163.26-0.41 30.638-0.078 55.447-24.923 55.467-55.567v-0.002c0-0.649 0-1.297 0-2.116 0.444-203.127 0.444-265.796 0-471.757v0zM649.899 740.25v-588.595h-275.251v588.595zM324.335 741.171v-591.258h-124.416c-31.095 0-69.7-0.171-90.59 0-0.774-0.037-1.682-0.058-2.594-0.058-14.866 0-28.427 5.591-38.694 14.784l0.055-0.049c-10.927 9.846-17.995 23.792-18.768 39.393l-0.005 0.133c0 1.809 0 3.686 0 5.7-0.375 205.175-0.341 263.714 0 471.245-0.076 1.093-0.119 2.369-0.119 3.654 0 29.623 22.94 53.888 52.024 56l0.183 0.011c1.092 0 2.116 0 3.209 0 44.373 0.785 107.418 0.649 163.123 0.444zM84.275 613.717v-90.59c0.039-32.993 26.774-59.729 59.764-59.767h90.594c33.008 0.019 59.763 26.762 59.802 59.764v90.594c-0.039 33.005-26.794 59.748-59.8 59.767h-90.626c-32.978-0.058-59.695-26.786-59.733-59.764v-0.004zM247.33 613.717v-90.59c0-7.013-5.685-12.698-12.698-12.698v0h-90.624c-6.998 0.019-12.663 5.697-12.663 12.698 0 0 0 0 0 0v0 90.59c0 0 0 0 0 0 0 7.001 5.665 12.678 12.662 12.698h90.592c0.010 0 0.022 0 0.034 0 7.013 0 12.698-5.685 12.698-12.698 0 0 0 0 0 0v0zM470.118 463.292h90.59c32.993 0.039 59.729 26.774 59.767 59.764v90.662c-0.039 32.993-26.774 59.729-59.764 59.767h-90.594c-32.993-0.039-59.729-26.774-59.767-59.764v-90.594c0-33.022 26.751-59.797 59.764-59.836h0.004zM457.455 613.649c0 0 0 0 0 0 0 7.001 5.665 12.678 12.662 12.698h90.592c6.998-0.019 12.663-5.697 12.663-12.698 0 0 0 0 0 0v0-90.59c0 0 0 0 0 0 0-7.001-5.665-12.678-12.662-12.698h-90.592c-6.998 0.019-12.663 5.697-12.663 12.698 0 0 0 0 0 0v0zM234.633 419.84h-90.624c-33.005-0.039-59.748-26.794-59.767-59.8v-90.592c0.039-32.993 26.774-59.729 59.764-59.767h90.594c33.008 0.019 59.763 26.762 59.802 59.764v90.662c-0.058 32.978-26.786 59.695-59.764 59.733h-0.004zM247.33 269.483c-0.019-6.998-5.697-12.663-12.698-12.663 0 0 0 0 0 0h-90.624c-6.986 0.019-12.644 5.677-12.663 12.662v90.626c0 0 0 0 0 0 0 7.001 5.665 12.678 12.662 12.698h90.592c7.013 0 12.698-5.685 12.698-12.698v0zM886.818 673.451h-90.624c-33.008-0.019-59.763-26.762-59.802-59.764v-90.594c0.039-33.005 26.794-59.748 59.8-59.767h90.592c33.008 0.019 59.763 26.762 59.802 59.764v90.628c-0.058 32.978-26.786 59.695-59.764 59.733h-0.004zM899.516 523.093c0-7.013-5.685-12.698-12.698-12.698v0h-90.624c-7.013 0-12.698 5.685-12.698 12.698v0 90.624c0 7.013 5.685 12.698 12.698 12.698v0h90.59c7.013 0 12.698-5.685 12.698-12.698v0zM886.818 419.84h-90.624c-33.020-0.019-59.782-26.782-59.802-59.8v-90.592c0.039-33.005 26.794-59.748 59.8-59.767h90.592c33.008 0.019 59.763 26.762 59.802 59.764v90.662c-0.058 32.978-26.786 59.695-59.764 59.733h-0.004zM899.516 269.483c-0.019-6.998-5.697-12.663-12.698-12.663 0 0 0 0 0 0h-90.624c0 0 0 0 0 0-7.001 0-12.678 5.665-12.698 12.662v90.626c0 7.013 5.685 12.698 12.698 12.698v0h90.59c7.013 0 12.698-5.685 12.698-12.698v0z" />
<glyph unicode="&#xe924;" glyph-name="google" d="M622.114 481.041c3.321-15.932 5.223-34.24 5.223-52.992 0-0.090 0-0.18 0-0.27v0.014c0-182.921-122.675-312.593-307.2-312.593-176.731 0-320 143.269-320 320s143.269 320 320 320v0c1.202 0.017 2.621 0.027 4.042 0.027 81.55 0 155.641-31.936 210.448-83.983l-0.133 0.125-87.006-83.422c-32.148 30.562-75.729 49.363-123.701 49.363-1.331 0-2.66-0.014-3.984-0.043l0.198 0.003c-110.047-2.087-198.457-91.787-198.457-202.138s88.41-200.051 198.262-202.135l0.195-0.003c3.583-0.264 7.762-0.414 11.977-0.414 83.379 0 153.008 58.873 169.583 137.318l0.2 1.132h-181.76v110.012h302.114zM931.123 470.323v92.877h-93.355v-92.877h-92.877v-93.321h92.877v-92.843h93.321v92.809h92.911v93.355h-92.877z" />
<glyph unicode="&#xe925;" glyph-name="lifetime" d="M256.375 687.787l-87.313-6.827c-24.88-1.896-46.298-15.214-59.212-34.665l-0.18-0.288-100.693-152.303c-5.616-8.379-8.963-18.69-8.963-29.783 0-26.895 19.675-49.195 45.417-53.292l0.307-0.040 79.94-12.39c22.954 110.722 68.567 208.175 131.973 291.332l-1.276-1.745zM446.259 77.756l12.39-79.94c4.111-26.058 26.409-45.748 53.306-45.748 11.104 0 21.425 3.356 30.003 9.109l-0.194-0.123 152.337 100.693c19.726 13.101 33.030 34.517 34.902 59.129l0.016 0.263 6.827 87.313c-81.412-62.129-178.866-107.743-284.936-129.884l-4.651-0.812zM416.188 133.188c0.022 0 0.048 0 0.074 0 2.927 0 5.797 0.248 8.588 0.725l-0.3-0.042c45.287 7.867 85.549 19.718 123.748 35.542l-3.837-1.408-328.636 328.636c-14.416-34.362-26.266-74.625-33.627-116.435l-0.507-3.476c-0.432-2.505-0.678-5.389-0.678-8.332 0-14.272 5.805-27.189 15.183-36.517l183.366-183.366c9.348-9.438 22.3-15.292 36.619-15.326h0.007zM927.607 513.126c50.855 101.935 80.621 222.048 80.621 349.113 0 16.788-0.52 33.455-1.544 49.985l0.112-2.264c-1.488 26.38-22.526 47.394-48.78 48.839l-0.133 0.006c-12.561 0.683-27.307 1.195-44.169 1.195-2.273 0.024-4.958 0.037-7.647 0.037-125.643 0-244.349-29.701-349.479-82.465l4.495 2.044c-136.173-76.787-245.041-187.912-316.977-321.829l-2.101-4.281c1.002-0.777 1.892-1.56 2.733-2.392l354.335-354.335c0.829-0.838 1.612-1.729 2.339-2.664l0.050-0.067c138.212 74.034 249.349 182.902 324.066 315.081l2.078 3.997zM586.103 746.94c26.711 26.69 63.601 43.197 104.346 43.197 81.532 0 147.627-66.095 147.627-147.627s-66.095-147.627-147.627-147.627c-81.532 0-147.627 66.095-147.627 147.627 0 0.018 0 0.035 0 0.053v-0.003c0.015 40.773 16.538 77.684 43.248 104.415l-0.001-0.001zM627.814 579.891c16.065-16.091 38.273-26.045 62.805-26.045 49.013 0 88.747 39.733 88.747 88.747s-39.733 88.747-88.747 88.747c-49.013 0-88.747-39.733-88.747-88.747 0-0.023 0-0.047 0-0.070v0.004c0.019-24.457 9.928-46.595 25.943-62.636l-0.001 0.001zM30.14 129.365c0.020 0 0.043 0 0.066 0 8.134 0 15.497 3.301 20.823 8.635v0l96.427 96.393c5.619 5.384 9.111 12.95 9.111 21.331 0 16.306-13.219 29.525-29.525 29.525-8.381 0-15.947-3.492-21.321-9.101l-0.010-0.011-96.461-96.358c-5.35-5.344-8.66-12.73-8.66-20.89 0-16.306 13.219-29.525 29.525-29.525 0.008 0 0.017 0 0.025 0h-0.001zM235.759 187.802c-5.343 5.34-12.722 8.643-20.873 8.643s-15.53-3.303-20.873-8.643l-185.344-185.344c-5.619-5.384-9.111-12.95-9.111-21.331 0-16.306 13.219-29.525 29.525-29.525 8.381 0 15.947 3.492 21.321 9.101l0.010 0.011 185.344 185.344c5.34 5.343 8.643 12.722 8.643 20.873s-3.303 15.53-8.643 20.873v0zM282.351 99.465l-96.393-96.256c-5.619-5.384-9.111-12.95-9.111-21.331 0-16.306 13.219-29.525 29.525-29.525 8.381 0 15.947 3.492 21.321 9.101l0.010 0.011 96.427 96.427c5.072 5.293 8.195 12.489 8.195 20.414 0 16.306-13.219 29.525-29.525 29.525-7.925 0-15.121-3.123-20.425-8.205l0.011 0.010z" />
<glyph unicode="&#xe926;" glyph-name="lock" d="M802.918 619.964h-76.083v116.736c-2.708 123.85-103.747 223.213-227.994 223.213s-225.286-99.363-227.989-222.961l-0.004-0.252v-116.736h-75.913c-69.914-0.078-126.572-56.723-126.669-126.625v-430.669c0.078-69.926 56.743-126.591 126.661-126.669h607.99c69.926 0.078 126.591 56.743 126.669 126.661v430.667c-0.097 69.911-56.755 126.557-126.661 126.635h-0.007zM355.294 736.7c2.744 77.168 65.962 138.683 143.548 138.683s140.803-61.515 143.541-138.433l0.007-0.25v-116.736h-287.095zM845.141 62.669c-0.019-23.311-18.912-42.204-42.221-42.223h-607.985c-23.311 0.019-42.204 18.912-42.223 42.221v430.662c0.019 23.311 18.912 42.204 42.221 42.223h607.985c23.311-0.019 42.204-18.912 42.223-42.221v-0.002zM498.893 413.082c-0.008 0-0.017 0-0.027 0-43.132 0-78.097-34.965-78.097-78.097 0-27.43 14.141-51.557 35.532-65.489l0.301-0.184v-92.672c0-23.319 18.904-42.223 42.223-42.223s42.223 18.904 42.223 42.223v0 92.57c21.782 14.101 35.992 38.278 35.992 65.775 0 43.132-34.965 78.097-78.097 78.097-0.018 0-0.035 0-0.053 0h0.003z" />
<glyph unicode="&#xe927;" glyph-name="mail" d="M927.983 823.467h-831.966c-0.133 0.001-0.29 0.001-0.448 0.001-52.484 0-95.087-42.305-95.569-94.675v-568.366c0.482-52.416 43.085-94.721 95.57-94.721 0.157 0 0.315 0 0.472 0.001h831.942c0.133-0.001 0.29-0.001 0.448-0.001 52.484 0 95.087 42.305 95.569 94.675v568.366c-0.482 52.416-43.085 94.721-95.57 94.721-0.157 0-0.315 0-0.472-0.001h0.024zM927.983 760.32c4.424-0.012 8.634-0.914 12.465-2.537l-0.211 0.079-428.237-366.217-428.271 366.353c3.62 1.543 7.83 2.445 12.249 2.458h0.005zM927.983 128.853h-831.966c-0.061 0-0.133-0.001-0.206-0.001-17.486 0-31.676 14.107-31.811 31.561v530.752l427.042-365.227c5.613-4.792 12.953-7.708 20.975-7.708s15.362 2.916 21.020 7.745l-0.045-0.037 427.042 365.227v-530.739c-0.135-17.467-14.326-31.574-31.811-31.574-0.084 0-0.169 0-0.253 0.001h0.013z" />
<glyph unicode="&#xe928;" glyph-name="minus" d="M960 388.267h-896c-35.346 0-64 28.654-64 64s28.654 64 64 64v0h896c35.346 0 64-28.654 64-64s-28.654-64-64-64v0z" />
<glyph unicode="&#xe929;" glyph-name="monthly" d="M965.734 823.842l-428.032 133.666c-4.93 1.588-10.601 2.504-16.486 2.504s-11.557-0.915-16.88-2.612l0.393 0.108-427.998-133.666c-22.692-7.243-38.838-28.137-38.844-52.804v-0.001c0-591.838 299.179-733.286 459.605-809.267 6.921-3.345 15.051-5.3 23.637-5.3s16.716 1.955 23.969 5.443l-0.332-0.144c160.666 75.981 459.708 217.463 459.708 809.267 0 0.006 0 0.013 0 0.019 0 24.634-16.099 45.509-38.35 52.676l-0.392 0.109zM521.387 73.045c-152.678 73.284-360.892 194.731-372.326 657.408l372.326 116.258 372.053-116.258c-11.469-462.677-219.716-584.090-372.053-657.408zM211.9 684.237c-0.054-3.106-0.085-6.77-0.085-10.442 0-116.46 31.051-225.667 85.327-319.794l-1.649 3.102 376.627 376.627-150.903 47.138zM521.216 135.578c105.813 47.548 304.742 206.677 309.214 537.361l-439.535-439.535c37.565-37.865 80.44-70.383 127.433-96.362l2.888-1.464z" />
<glyph unicode="&#xe92a;" glyph-name="option" d="M580.267 635.733c0-28.277-22.923-51.2-51.2-51.2s-51.2 22.923-51.2 51.2c0 28.277 22.923 51.2 51.2 51.2s51.2-22.923 51.2-51.2zM580.267 430.933c0-28.277-22.923-51.2-51.2-51.2s-51.2 22.923-51.2 51.2c0 28.277 22.923 51.2 51.2 51.2s51.2-22.923 51.2-51.2zM580.267 226.133c0-28.277-22.923-51.2-51.2-51.2s-51.2 22.923-51.2 51.2c0 28.277 22.923 51.2 51.2 51.2s51.2-22.923 51.2-51.2z" />
<glyph unicode="&#xe92b;" glyph-name="outlook" d="M1024 647.543v-447.147c0.005-0.221 0.008-0.482 0.008-0.743 0-9.377-3.931-17.836-10.234-23.819l-0.014-0.014c-6.161-6.082-14.63-9.839-23.977-9.839-0.271 0-0.541 0.003-0.81 0.009l0.040-0.001h-364.578v296.96l68.267-52.429c4.15-3.368 9.497-5.408 15.321-5.408 0.302 0 0.602 0.005 0.902 0.016l-0.043-0.001c0.168-0.004 0.365-0.006 0.563-0.006 6.057 0 11.636 2.043 16.087 5.479l-0.061-0.045zM624.435 733.764h364.646c0.265 0.007 0.578 0.012 0.891 0.012 8.525 0 16.326-3.104 22.333-8.243l-0.047 0.039c6.212-5.316 10.226-13.045 10.579-21.718l0.002-0.059-314.402-250.709-84.002 66.116v214.562zM571.904 925.73v-950.101l-571.904 98.816v749.875l571.972 101.41zM399.155 448.853c0.024 1.158 0.038 2.524 0.038 3.893 0 43.644-14.094 83.996-37.978 116.754l0.393-0.566c-20.404 29.081-53.279 48.215-90.69 49.59l-0.207 0.006c-37.108-1.914-69.404-20.947-89.354-49.295l-0.246-0.369c-23.254-31.806-37.207-71.692-37.207-114.838 0-1.844 0.025-3.682 0.076-5.513l-0.006 0.27c-0.023-1.117-0.036-2.435-0.036-3.755 0-43.377 14.195-83.438 38.193-115.792l-0.371 0.524c20.294-28.721 52.513-47.853 89.295-50.159l0.34-0.017c37.822 1.587 70.848 20.793 91.266 49.572l0.246 0.365c23.61 31.967 37.789 72.151 37.789 115.648 0 1.343-0.014 2.683-0.040 4.019l0.003-0.2h-1.536zM266.035 554.667c20.158-1.648 37.206-13.54 46.067-30.407l0.15-0.313c11.73-20.034 18.656-44.114 18.656-69.811 0-1.738-0.032-3.468-0.094-5.19l0.007 0.249c0.064-1.589 0.1-3.454 0.1-5.328 0-25.844-6.93-50.070-19.032-70.921l0.363 0.678c-9.024-17.261-26.41-29.060-46.636-30.032l-0.127-0.005c-20.288 0.675-37.709 12.316-46.585 29.159l-0.143 0.298c-11.758 19.647-18.71 43.342-18.71 68.661 0 2.178 0.051 4.344 0.153 6.498l-0.011-0.304c-0.103 1.952-0.162 4.238-0.162 6.537 0 25.001 6.965 48.374 19.060 68.287l-0.33-0.584c9.229 16.945 26.105 28.714 45.867 30.7l0.247 0.020z" />
<glyph unicode="&#xe92c;" glyph-name="pause" d="M693.453 41.609v812.885c0 58.288 47.252 105.54 105.54 105.54s105.54-47.252 105.54-105.54v0-812.885c0-58.288-47.252-105.54-105.54-105.54s-105.54 47.252-105.54 105.54v0zM102.4 41.609v812.885c0 58.298 47.26 105.557 105.557 105.557s105.557-47.26 105.557-105.557v0-812.885c0-58.298-47.26-105.557-105.557-105.557s-105.557 47.26-105.557 105.557v0z" />
<glyph unicode="&#xe92d;" glyph-name="play" d="M844.425 357.581l-576.649-397.995c-71.987-49.732-131.243-18.227-131.243 70.007v836.813c0 88.235 59.255 119.74 131.243 70.007l576.478-397.995c32.418-17.709 54.040-51.562 54.040-90.465 0-38.835-21.546-72.637-53.337-90.105l-0.533-0.268z" />
<glyph unicode="&#xe92e;" glyph-name="plus" d="M965.973 380.416h-901.564c-0.441-0.011-0.961-0.017-1.483-0.017-35.572 0-64.41 28.837-64.41 64.41s28.837 64.41 64.41 64.41c0.521 0 1.041-0.006 1.56-0.019l-0.077 0.001h901.564c0.441 0.011 0.961 0.017 1.483 0.017 35.572 0 64.41-28.837 64.41-64.41s-28.837-64.41-64.41-64.41c-0.521 0-1.041 0.006-1.56 0.019l0.077-0.001zM515.209-70.417c-35.572 0-64.41 28.837-64.41 64.41 0 0.012 0 0.024 0 0.036v-0.002 901.564c-0.011 0.441-0.017 0.961-0.017 1.483 0 35.572 28.837 64.41 64.41 64.41s64.41-28.837 64.41-64.41c0-0.521-0.006-1.041-0.019-1.56l0.001 0.077v-901.564c0-0.010 0-0.022 0-0.034 0-35.56-28.818-64.39-64.374-64.41h-0.002z" />
<glyph unicode="&#xe92f;" glyph-name="pomodoro" d="M836.813 645.257l40.175 40.141c7.226 7.23 11.695 17.216 11.695 28.245 0 22.068-17.889 39.957-39.957 39.957-11.038 0-21.031-4.476-28.262-11.711l-40.141-40.141c-64.273 53.917-145.59 89.484-234.828 97.701l-1.682 0.125v80.521h38.605c22.065 0 39.953 17.888 39.953 39.953s-17.888 39.953-39.953 39.953h-157.013c-22.065 0-39.953-17.888-39.953-39.953s17.888-39.953 39.953-39.953h38.605v-80.521c-221.168-21.129-392.763-205.971-392.763-430.892 0-238.997 193.745-432.742 432.742-432.742s432.742 193.745 432.742 432.742c0 105.494-37.749 202.171-100.476 277.261l0.558-0.687zM503.842 15.906c-194.87 0.019-352.836 157.997-352.836 352.87 0 194.885 157.985 352.87 352.87 352.87s352.87-157.985 352.87-352.87v0c-0.233-194.803-158.099-352.657-352.884-352.87h-0.021zM688.913 553.813c7.231-7.228 11.703-17.214 11.703-28.245s-4.473-21.018-11.703-28.245l-157.013-157.013c-7.229-7.229-17.215-11.7-28.245-11.7-22.061 0-39.945 17.884-39.945 39.945 0 11.030 4.471 21.017 11.7 28.245l157.013 157.013c7.228 7.231 17.214 11.703 28.245 11.703s21.018-4.473 28.245-11.703v0z" />
<glyph unicode="&#xe930;" glyph-name="project" d="M341.982-34.406c-17.424 4.776-30.015 20.47-30.015 39.106 0 3.582 0.465 7.055 1.339 10.363l-0.063-0.282 47.104 183.774h-320.307c-22.138 0.116-40.039 18.089-40.039 40.243 0 0.048 0 0.096 0 0.145v-0.008 646.519c0 0.041 0 0.089 0 0.137 0 22.154 17.901 40.127 40.028 40.243h944.002c22.104-0.135 39.97-18.085 39.97-40.208 0-0.060 0-0.12 0-0.181v0.009-646.519c0-0.051 0-0.111 0-0.171 0-22.123-17.866-40.073-39.958-40.208h-320.423l47.104-183.774c0.824-3.047 1.297-6.545 1.297-10.153 0-18.624-12.608-34.303-29.755-38.967l-0.283-0.066c-3.047-0.824-6.544-1.297-10.153-1.297-0.031 0-0.061 0-0.092 0h0.005c-18.576 0.096-34.152 12.827-38.578 30.033l-0.061 0.278-52.224 203.981h-138.103l-52.224-203.981c-4.487-17.484-20.063-30.215-38.628-30.31h-0.011c-3.535 0.011-6.955 0.483-10.21 1.361l0.277-0.064zM80.009 279.45h863.983v565.623h-863.983zM315.529 441.89c-0.010 0-0.022 0-0.034 0-21.962 0-39.765 17.804-39.765 39.765 0 0.012 0 0.024 0 0.036v-0.002c0 0.010 0 0.022 0 0.034 0 21.962 17.804 39.765 39.765 39.765 0.012 0 0.024 0 0.036 0h196.128c21.973-0.019 39.78-17.827 39.799-39.798v-0.002c-0.019-21.973-17.827-39.78-39.798-39.799h-0.002zM315.529 601.020c-0.020 0-0.044 0-0.068 0-21.943 0-39.731 17.788-39.731 39.731 0 0.024 0 0.048 0 0.072v-0.004c0 0.010 0 0.022 0 0.034 0 21.962 17.804 39.765 39.765 39.765 0.012 0 0.024 0 0.036 0h432.433c21.966-0.019 39.765-17.831 39.765-39.799v0c0-0.010 0-0.022 0-0.034 0-21.962-17.804-39.765-39.765-39.765v0z" />
<glyph unicode="&#xe931;" glyph-name="restore" d="M66.799-64h594.466c36.176 0 65.502 29.326 65.502 65.502v0 231.731h231.697c36.176 0 65.502 29.326 65.502 65.502v0 594.5c0 36.176-29.326 65.502-65.502 65.502v0h-594.432c-36.176 0-65.502-29.326-65.502-65.502v0-231.697h-231.731c-36.176 0-65.502-29.326-65.502-65.502v0-594.5c0-0.010 0-0.022 0-0.034 0-36.176 29.326-65.502 65.502-65.502v0zM429.568 827.699h463.428v-463.428h-166.195v231.697c0 36.176-29.326 65.502-65.502 65.502h-231.731v166.229zM132.335 530.466h463.428v-463.428h-463.428z" />
<glyph unicode="&#xe932;" glyph-name="ring-tone" d="M924.365 952.013c-6.524 4.975-14.791 7.971-23.758 7.971-3.816 0-7.505-0.543-10.995-1.555l0.278 0.069-556.646-157.525c-16.676-4.827-28.665-19.956-28.672-37.887v-533.198c-22.581 13.253-49.732 21.080-78.711 21.080-86.98 0-157.491-70.511-157.491-157.491s70.511-157.491 157.491-157.491c86.98 0 157.491 70.511 157.491 157.491 0 0.029 0 0.058 0 0.087v-0.004 482.202l477.867 135.236v-323.584c-22.581 13.253-49.732 21.080-78.711 21.080-86.98 0-157.491-70.511-157.491-157.491s70.511-157.491 157.491-157.491c86.98 0 157.491 70.511 157.491 157.491 0 0.029 0 0.058 0 0.087v-0.004 669.525c-0.006 12.782-6.099 24.14-15.537 31.332l-0.096 0.070zM225.826 14.746c-43.509 0-78.78 35.271-78.78 78.78s35.271 78.78 78.78 78.78c43.509 0 78.78-35.271 78.78-78.78v0c-0.058-43.491-35.318-78.726-78.812-78.746h-0.002zM782.473 172.271c-43.509 0-78.78 35.271-78.78 78.78s35.271 78.78 78.78 78.78c43.509 0 78.78-35.271 78.78-78.78v0c-0.058-43.491-35.318-78.726-78.812-78.746h-0.002zM861.252 792.815l-477.867-135.236v75.674l477.867 135.236z" />
<glyph unicode="&#xe933;" glyph-name="search" d="M1017.242 6.076l-259.823 259.823c59.053 72.539 94.822 166.083 94.822 267.981 0 235.321-190.765 426.086-426.086 426.086s-426.086-190.765-426.086-426.086c0-235.321 190.765-426.086 426.086-426.086 101.898 0 195.442 35.77 268.761 95.437l-0.78-0.615 259.618-260.028c4.051-4.045 9.644-6.546 15.821-6.546s11.77 2.501 15.821 6.546v0l31.369 31.642c4.269 4.074 6.923 9.807 6.923 16.16 0 6.015-2.379 11.474-6.247 15.488l0.007-0.007zM426.974 197.222c-185.44 0-335.77 150.329-335.77 335.77s150.329 335.77 335.77 335.77c185.44 0 335.77-150.329 335.77-335.77v0 0c-0.097-185.436-150.348-335.746-335.751-335.94h-0.018z" />
<glyph unicode="&#xe934;" glyph-name="setting" d="M516.779 688.503c-0.219 0.001-0.479 0.001-0.738 0.001-126.747 0-230.413-98.817-238.161-223.611l-0.034-0.68c-0.174-3.469-0.273-7.534-0.273-11.621 0-63.905 24.206-122.157 63.95-166.085l-0.19 0.213c38.193-43.291 92.562-71.541 153.559-75.234l0.621-0.030q6.042-0.273 12.083-0.273c65.166 0.203 124.481 25.084 169.126 65.784l-0.2-0.18c44.384 39.621 73.146 95.933 76.368 158.988l0.022 0.551c0.445 5.411 0.699 11.712 0.699 18.072 0 129.301-104.819 234.121-234.121 234.121-0.954 0-1.906-0.006-2.857-0.017l0.145 0.001zM618.769 340.343c-29.237-26.778-68.356-43.185-111.307-43.185-2.69 0-5.365 0.064-8.023 0.192l0.375-0.014c-38.003 2.589-71.437 20.242-94.715 46.972l-0.141 0.166c-25.828 28.488-41.638 66.474-41.638 108.153 0 2.574 0.060 5.135 0.18 7.68l-0.013-0.36c5.305 77.226 66.964 138.471 143.889 143.101l0.426 0.021c1.707 0 3.413 0 5.154 0 1.806 0.078 3.925 0.123 6.054 0.123 82.229 0 148.89-66.66 148.89-148.89 0-4.935-0.24-9.814-0.709-14.626l0.048 0.61c-2.202-39.956-20.448-75.26-48.348-99.876l-0.156-0.135zM1025.161 482.372c0.090 1.507 0.142 3.27 0.142 5.044 0 41.377-27.951 76.226-66.002 86.694l-0.631 0.148c-54.17 15.326-117.487 114.688-100.454 180.292 2.065 7.095 3.252 15.246 3.252 23.674 0 33.723-19.015 63.005-46.907 77.71l-0.479 0.23c-9.455 5.53-18.739 11.332-28.058 17.067-16.35 10.24-33.246 20.685-51.2 30.071-14.809 8.472-32.548 13.468-51.455 13.468-26.311 0-50.363-9.675-68.791-25.661l0.13 0.11c-26.962-18.737-60.389-29.934-96.432-29.934-36.359 0-70.057 11.395-97.717 30.809l0.545-0.362c-7.339 5.939-14.848 11.742-22.357 17.51l-21.436 16.623h-49.664l-37.547-21.026c-21.402-12.015-42.769-23.893-64.444-35.43-30.264-13.989-50.886-44.086-50.886-79 0-5.863 0.582-11.59 1.69-17.127l-0.093 0.554c11.196-64.853-11.913-117.965-72.704-166.707-11.784-8.477-25.33-15.623-39.821-20.775l-1.139-0.353c-36.693-12.71-62.568-46.973-62.568-87.28 0-2.342 0.087-4.663 0.259-6.961l-0.018 0.306c0.717-22.733 1.365-52.634 0-82.261-0.17-2.133-0.268-4.618-0.268-7.126 0-39.992 24.714-74.213 59.702-88.222l0.64-0.226c56.979-23.34 97.624-75.765 103.678-138.312l0.053-0.679c0.178-3.054 0.28-6.625 0.28-10.221 0-12.528-1.232-24.767-3.583-36.604l0.197 1.189c-1.239-5.601-1.949-12.035-1.949-18.635 0-32.966 17.709-61.795 44.132-77.495l0.415-0.228c25.463-15.599 51.2-30.72 77.073-45.67l41.813-24.439h40.141l11.366 8.431c6.042 4.506 12.049 9.045 18.022 13.653 12.766 9.694 24.781 18.842 37.171 27.307 22.78 14.33 50.482 22.831 80.169 22.831 38.31 0 73.313-14.157 100.063-37.525l-0.179 0.153c16.506-16.947 39.546-27.459 65.041-27.459 15.42 0 29.943 3.846 42.66 10.63l-0.489-0.238 8.738 4.437c26.044 13.21 52.975 26.829 79.223 41.609 28.078 16.548 46.621 46.634 46.621 81.051 0 7.918-0.981 15.607-2.829 22.952l0.138-0.647c-8.158 62.942 17.306 113.050 82.569 162.475 7.676 4.294 16.569 7.72 25.965 9.81l0.659 0.123c38.844 7.905 67.664 41.786 67.664 82.398 0 0.504-0.004 1.007-0.013 1.509l0.001-0.076c0.341 21.777 0.273 43.52 0.205 65.297zM939.281 387.857v-0.922c-1.25-0.523-2.807-1.048-4.404-1.474l-0.272-0.062c-21.141-4.853-39.762-13.236-56.174-24.586l0.537 0.351c-90.18-68.267-128.068-147.422-115.849-241.835 1.741-13.346 0-17.067-0.956-17.613-24.61-13.858-50.688-27.068-75.913-39.868l-8.772-4.437c-0.902-0.5-1.947-0.921-3.045-1.208l-0.095-0.021c-2.689 1.135-4.967 2.767-6.813 4.797l-0.014 0.016c-41.935 37.224-97.46 59.96-158.296 59.96-47.571 0-91.895-13.902-129.131-37.865l0.946 0.57c-14.336-9.694-27.853-20.002-40.96-29.935l-0.956-0.751-15.36 8.977c-25.259 14.711-50.551 29.457-75.469 44.681-1.057 0.57-1.958 1.276-2.724 2.109l-0.007 0.007c-0.26 1.164-0.409 2.502-0.409 3.874s0.149 2.71 0.431 3.997l-0.023-0.123c2.827 14.416 4.445 30.992 4.445 47.946 0 6.995-0.275 13.926-0.816 20.783l0.057-0.906c-9.461 93.375-68.537 170.99-150.133 206.726l-1.624 0.634c-12.083 5.837-12.015 6.827-11.674 14.029 1.604 32.666 0.922 64.853 0 89.122-0.061 0.582-0.095 1.258-0.095 1.941 0 1.959 0.284 3.852 0.814 5.64l-0.036-0.14c1.989 1.754 4.373 3.112 6.998 3.923l0.136 0.036c24.244 8.761 45.235 20.302 64.049 34.566l-0.595-0.432c85.333 68.267 120.149 151.893 103.561 248.149 0 0.887-0.205 1.536-0.307 1.843 1.41 1.178 3.001 2.223 4.705 3.076l0.142 0.064c22.46 11.776 44.578 24.201 66.697 36.625l16.759 9.387c6.11-4.71 12.254-9.455 18.261-14.336 41.762-31.048 94.344-49.704 151.283-49.704 55.631 0 107.103 17.809 149.025 48.037l-0.753-0.517c14.302 10.889 19.593 8.943 28.501 4.335 15.155-7.919 29.969-17.067 45.67-26.897 9.967-6.178 19.934-12.356 30.037-18.295 3.106-1.809 4.54-3.174 4.915-3.243-0.082-1.018-0.263-1.959-0.537-2.86l0.025 0.095c-27.546-106.155 56.252-254.976 160.119-284.365 1.049-0.265 1.969-0.639 2.821-1.121l-0.056 0.029c0.872-2.032 1.379-4.397 1.379-6.881 0-0.461-0.018-0.919-0.052-1.371l0.004 0.060v-30.72c0.239-21.436 0.307-42.667 0-63.898z" />
<glyph unicode="&#xe935;" glyph-name="share" d="M1012.087 494.66l-369.801 384c-7.772 8.055-18.662 13.057-30.72 13.057-23.564 0-42.667-19.103-42.667-42.667 0-0.006 0-0.013 0-0.019v0.001-184.9h-14.234c-306.229-0.311-554.4-248.445-554.769-554.631v-85.369c0.088-20.026 14.149-36.742 32.932-40.908l0.28-0.052c2.761-0.716 5.931-1.127 9.197-1.127 0.067 0 0.133 0 0.2 0.001h-0.010c16.968 0.178 31.624 9.904 38.864 24.054l0.116 0.249c78.052 154.968 235.88 259.417 418.102 259.417 0.611 0 1.222-0.001 1.832-0.004h67.489v-184.9c0.009-23.557 19.108-42.651 42.667-42.651 12.058 0 22.948 5.002 30.708 13.044l0.012 0.013 369.766 384c7.393 7.661 11.948 18.104 11.948 29.611s-4.555 21.949-11.96 29.623l0.012-0.013z" />
<glyph unicode="&#xe936;" glyph-name="somedays" d="M995.021 84.412c0 14.37 0.341 28.774 0 43.11 0.151 1.684 0.237 3.642 0.237 5.621 0 36.835-29.861 66.697-66.697 66.697-2.211 0-4.397-0.108-6.552-0.318l0.274 0.022q-424.516 0.307-848.862 0c-1.896 0.192-4.098 0.301-6.325 0.301-36.798 0-66.628-29.83-66.628-66.628 0-2.028 0.091-4.036 0.268-6.018l-0.018 0.256c-0.205-14.029 0-27.989 0-42.018 0.239-20.685 0.478-41.335-0.614-61.952-0.487-3.433-0.765-7.398-0.765-11.428 0-31.325 16.798-58.727 41.878-73.689l0.393-0.217 3.652-2.219h905.182l3.686 2.253c25.38 15.232 42.102 42.605 42.102 73.884 0 4.038-0.279 8.010-0.818 11.899l0.051-0.45c-0.853 20.241-0.649 40.585-0.444 60.894zM497.698 0.478h-415.573c-1.136 0.079-2.461 0.124-3.797 0.124-4.301 0-8.493-0.468-12.528-1.356l0.385 0.071c-0.719 4.364-1.13 9.394-1.13 14.519 0 1.292 0.026 2.578 0.078 3.858l-0.006-0.183v35.601c0 23.893 0.205 47.787-0.341 71.68 0 7.236 1.331 8.909 1.331 8.909s1.843 1.638 9.933 1.638v0q421.922-0.375 843.742 0c3.629-0.337 6.92-0.904 10.119-1.701l-0.459 0.097c0.975-2.101 1.544-4.56 1.544-7.153 0-0.788-0.053-1.563-0.154-2.323l0.010 0.089c-0.717-37.035-1.229-73.387 0.205-110.353 0.152-0.93 0.239-2.003 0.239-3.096 0-3.115-0.705-6.065-1.963-8.7l0.052 0.122c-0.205-0.239-1.775-1.024-13.653-2.219q-155.375 0.683-310.613 0.341zM72.704 650.786c8.356-1.556 17.969-2.447 27.791-2.447 5.009 0 9.964 0.232 14.854 0.684l-0.627-0.047h2.935v-99.499c0-66.082 0-123.255 0-201.387-0.299-2.337-0.469-5.041-0.469-7.784 0-35.818 29.036-64.853 64.853-64.853 2.571 0 5.106 0.15 7.599 0.44l-0.303-0.029q24.542-0.171 49.152 0h62.976c54.989 0 78.507 23.415 78.507 78.063v295.458h2.458c11.503 0 21.948 0 32.358 0 2.422-0.358 5.217-0.563 8.061-0.563 22.732 0 42.411 13.071 51.931 32.108l0.152 0.335c2.826 6.672 4.468 14.431 4.468 22.574 0 16.028-6.364 30.57-16.703 41.237l0.015-0.015c-15.701 20.002-31.13 40.311-46.524 60.587-25.873 33.963-52.599 69.12-80.384 102.673l-0.239 0.239c-21.142 25.728-52.065 42.748-87.004 45.339l-0.411 0.024c-0.537 0.010-1.171 0.016-1.806 0.016-29.152 0-55.447-12.235-74.029-31.85l-0.044-0.046c-46.217-56.798-91.921-116.361-139.742-182.135-7.111-10.256-11.36-22.965-11.36-36.667 0-7.755 1.361-15.191 3.857-22.085l-0.143 0.452c10.811-16.17 27.743-27.523 47.41-30.766l0.411-0.056zM249.173 899.004c11.222-1.336 20.776-7.513 26.641-16.349l0.085-0.137q52.599-67.311 104.311-135.339l25.532-33.28h-0.785c-81.51-0.341-88.098-6.827-88.098-89.532v-265.114c0-4.949 0-16.486 0.41-17.579-4.544-0.806-9.776-1.267-15.115-1.267-1.275 0-2.543 0.026-3.805 0.078l0.181-0.006q-16.657 0-33.212 0.205c-23.211 0.205-46.455 0.444-69.53-0.649-9.967-0.614-12.254 1.365-12.663 1.775s-2.628 3.413-2.56 15.053c0.546 88.747 0.444 153.6 0.375 231.322v76.151c0 40.96-8.226 49.391-48.572 49.527h-40.073l15.633 20.48q56.354 73.728 113.118 147.081c6.258 9.546 16.328 16.152 27.996 17.66l0.198 0.021zM574.771 650.615c7.889-1.439 16.968-2.261 26.238-2.261 4.726 0 9.402 0.214 14.019 0.632l-0.595-0.044h1.229v-100.42c0-65.502 0-122.129 0-199.68-0.342-2.508-0.537-5.406-0.537-8.349 0-36.006 29.189-65.195 65.195-65.195 3.115 0 6.178 0.218 9.176 0.641l-0.345-0.040q26.522 0 53.077 0 29.525 0 59.119 0c52.941 0 76.561 23.893 76.663 77.414v296.107h2.15c12.356 0 23.62 0 34.884 0 1.775-0.193 3.835-0.303 5.919-0.303 22.509 0 42.025 12.816 51.648 31.55l0.152 0.326c2.952 6.787 4.67 14.693 4.67 23.001 0 15.905-6.296 30.34-16.531 40.949l0.017-0.018c-15.667 20.002-31.061 40.243-46.49 60.518-25.941 34.133-52.702 69.222-80.555 102.81l-0.956 1.058c-19.765 23.915-46.454 41.47-76.981 49.63l-1.048 0.238c-2.308 0.193-4.996 0.303-7.709 0.303-31.621 0-59.754-14.935-77.73-38.137l-0.168-0.225c-29.423-36.557-58.027-73.83-86.494-111.104-16.896-22.084-33.792-44.134-50.893-66.082-24.883-31.949-17.545-53.897-6.827-66.697 12.983-13.48 30.013-22.978 49.132-26.536l0.566-0.088zM747.042 899.004c12.741-2.409 23.379-9.925 29.894-20.293l0.109-0.187q52.838-67.994 105.062-136.533l21.675-28.228h-38.093c-43.11 0-50.722-7.475-50.756-49.869v-302.387c-0.045-1.564-0.070-3.405-0.070-5.252 0-5.155 0.199-10.263 0.59-15.317l-0.042 0.67c-5.025-0.85-10.814-1.336-16.716-1.336-1.672 0-3.335 0.039-4.987 0.116l0.234-0.009h-94.583c-1.661 0.070-3.61 0.11-5.568 0.11-4.782 0-9.509-0.238-14.169-0.704l0.588 0.048c-0.881 5.13-1.385 11.039-1.385 17.066 0 1.789 0.044 3.568 0.132 5.335l-0.010-0.249v302.455c0 40.96-8.226 49.186-48.777 49.357l-39.629 0.273 10.001 13.039q57.651 75.332 115.541 150.494c7.509 9.728 19.012 21.367 30.993 21.367z" />
<glyph unicode="&#xe937;" glyph-name="statistic" d="M510.259 960c-282.77 0-512-229.23-512-512s229.23-512 512-512c282.77 0 512 229.23 512 512v0c0 0.081 0 0.177 0 0.273 0 282.619-229.108 511.727-511.727 511.727-0.096 0-0.192 0-0.288 0h0.015zM510.259 16.009c-238.582 0-431.991 193.409-431.991 431.991s193.409 431.991 431.991 431.991c238.582 0 431.991-193.409 431.991-431.991v0c0-0.071 0-0.155 0-0.239 0-238.45-193.302-431.753-431.753-431.753-0.084 0-0.168 0-0.252 0h0.013zM870.263 554.667v-151.996c0-22.094-17.911-40.004-40.004-40.004s-40.004 17.911-40.004 40.004v0 55.569l-145.033-145.033c-7.239-7.235-17.236-11.709-28.279-11.709s-21.041 4.474-28.28 11.709l-185.037 185.037-185.071-185.207c-7.006-6.178-16.264-9.95-26.402-9.95-22.094 0-40.004 17.911-40.004 40.004 0 10.138 3.771 19.395 9.987 26.446l-0.038-0.044 213.333 213.333c7.239 7.235 17.236 11.709 28.279 11.709s21.041-4.474 28.28-11.709l185.037-185.071 116.77 116.77h-55.535c-22.094 0-40.004 17.911-40.004 40.004s17.911 40.004 40.004 40.004h151.996c22.070-0.058 39.946-17.934 40.004-39.999v-0.006z" />
<glyph unicode="&#xe938;" glyph-name="stop" d="M170.667 960h691.337c94.257 0 170.667-76.41 170.667-170.667v-691.337c0-94.257-76.41-170.667-170.667-170.667h-691.337c-94.257 0-170.667 76.41-170.667 170.667v691.337c0 94.257 76.41 170.667 170.667 170.667z" />
<glyph unicode="&#xe939;" glyph-name="task" d="M949.077 381.167c-21.613 21.581-51.454 34.927-84.412 34.927s-62.799-13.346-84.413-34.929l-218.452-218.042c-4.476-4.532-7.905-10.11-9.887-16.333l-0.080-0.29-47.582-156.672c-1.102-3.477-1.737-7.476-1.737-11.623 0-21.962 17.804-39.765 39.765-39.765 3.789 0 7.454 0.53 10.926 1.52l-0.28-0.068 160.666 44.373c6.902 1.904 12.817 5.465 17.505 10.234l0.005 0.006 218.044 217.668c21.612 21.618 34.978 51.479 34.978 84.463 0 33.017-13.394 62.906-35.045 84.53l-0.001 0.001zM682.189 58.368l-80.828-22.391 23.654 77.892 147.422 147.115 56.286-56.286zM892.826 268.595l-7.714-7.714-56.149 56.183 7.714 7.646c7.129 6.809 16.81 10.999 27.469 10.999 21.981 0 39.799-17.819 39.799-39.799 0-10.651-4.184-20.325-10.998-27.467l0.015 0.016zM657.306 636.996v0c-7.016 6.599-16.492 10.654-26.914 10.654s-19.898-4.055-26.934-10.673l0.020 0.019-214.733-214.733-79.838 79.872c-7.184 7.663-17.37 12.438-28.672 12.438-21.686 0-39.267-17.58-39.267-39.267 0-10.385 4.031-19.828 10.615-26.85l-0.020 0.021 1.673-1.741 107.759-107.691c7.122-7.059 16.927-11.421 27.75-11.421s20.629 4.362 27.753 11.424l242.617 242.617c6.492 7.002 10.476 16.41 10.476 26.749 0 11.244-4.711 21.388-12.268 28.565l-0.017 0.016zM363.247 20.821h-133.12c-42.53 0.174-76.947 34.663-77.005 77.204v700.115c0.116 42.501 34.538 76.923 77.028 77.039h489.278c42.494-0.116 76.908-34.542 77.005-77.030v-244.779c0-23.432 18.996-42.428 42.428-42.428s42.428 18.996 42.428 42.428v0 244.77c-0.174 89.323-72.537 161.686-161.843 161.86h-489.284c-89.315-0.194-161.666-72.545-161.86-161.842v-700.298c0.174-89.323 72.537-161.686 161.843-161.86h133.137c23.413 0 42.394 18.98 42.394 42.394s-18.98 42.394-42.394 42.394v0z" />
<glyph unicode="&#xe93a;" glyph-name="task2" d="M720.043 519.987c0 22.094-17.911 40.004-40.004 40.004-0.012 0-0.024 0-0.036 0h-411.987c-22.094 0-40.004-17.911-40.004-40.004s17.911-40.004 40.004-40.004h411.989c0.010 0 0.022 0 0.034 0 22.094 0 40.004 17.911 40.004 40.004v0zM268.049 400.009c-22.094 0-40.004-17.911-40.004-40.004s17.911-40.004 40.004-40.004h250.231c22.094 0 40.004 17.911 40.004 40.004s-17.911 40.004-40.004 40.004v0zM362.052 16.009h-133.803c-44.172 0.039-79.97 35.837-80.009 80.005v704.004c0.039 44.172 35.837 79.97 80.005 80.009h491.797c44.172-0.039 79.97-35.837 80.009-80.005v-246.003c0-22.094 17.911-40.004 40.004-40.004s40.004 17.911 40.004 40.004v0 245.999c-0.116 88.321-71.693 159.886-160.008 159.983h-491.802c-88.309-0.116-159.866-71.674-159.983-159.972v-704.011c0.097-88.324 71.662-159.901 159.972-160.017h133.78c22.094 0 40.004 17.911 40.004 40.004s-17.911 40.004-40.004 40.004v0zM950.886 380.86c-21.727 21.679-51.717 35.085-84.838 35.085s-63.111-13.406-84.84-35.087l-219.612-219.134c-4.541-4.527-8-10.136-9.959-16.408l-0.076-0.284-47.787-157.457c-1.094-3.477-1.725-7.475-1.725-11.62 0-22.094 17.911-40.004 40.004-40.004 3.797 0 7.47 0.529 10.95 1.517l-0.282-0.068 161.451 44.715c6.91 1.954 12.836 5.505 17.579 10.241l219.135 218.726c21.702 21.736 35.122 51.745 35.122 84.89s-13.42 63.154-35.124 84.891l0.002-0.002zM682.667 56.593l-81.237-22.494 23.893 78.268 148.173 147.831 56.593-56.593zM894.293 267.878l-7.748-7.748-56.559 56.559 7.714 7.714c7.24 7.245 17.245 11.726 28.297 11.726 22.094 0 40.005-17.911 40.005-40.005 0-11.043-4.474-21.041-11.709-28.28v0zM680.004 720.009h-411.989c-22.094 0-40.004-17.911-40.004-40.004s17.911-40.004 40.004-40.004h411.989c22.094 0 40.004 17.911 40.004 40.004s-17.911 40.004-40.004 40.004v0z" />
<glyph unicode="&#xe93b;" glyph-name="tick" d="M0 406.801l350.652-351.334 673.348 672.666-96.666 95.334-576.683-576-255.317 255.317z" />
<glyph unicode="&#xe93c;" glyph-name="today" d="M681.779 635.085c-45.665 45.781-108.701 74.217-178.379 74.581h-0.070c-0.301 0.001-0.657 0.002-1.013 0.002-69.492 0-132.319-28.542-177.396-74.542l-0.040-0.041c-45.518-45.739-73.657-108.809-73.657-178.451 0-139.413 112.764-252.489 252.058-252.995h0.048c0.301-0.001 0.657-0.002 1.013-0.002 69.492 0 132.319 28.542 177.396 74.542l0.040 0.041c45.781 45.665 74.217 108.701 74.581 178.379v0.070c0.001 0.291 0.002 0.635 0.002 0.979 0 69.492-28.542 132.318-74.542 177.395l-0.042 0.041zM633.993 326.144c-33.882-34.581-81.066-56.018-133.257-56.018-103.004 0-186.505 83.501-186.505 186.505s83.501 186.505 186.505 186.505c102.99 0 186.482-83.478 186.505-186.463v-0.002c0.001-0.216 0.001-0.471 0.001-0.726 0-50.616-20.403-96.468-53.433-129.778l0.013 0.013zM972.083 491.281h-102.4c-19.125 0-34.628-15.504-34.628-34.628s15.504-34.628 34.628-34.628v0h102.4c19.125 0 34.628 15.504 34.628 34.628s-15.504 34.628-34.628 34.628v0zM503.33 125.065c-18.97-0.357-34.254-15.641-34.611-34.577l-0.001-0.034v-102.4c0-19.125 15.504-34.628 34.628-34.628s34.628 15.504 34.628 34.628v0 102.4c-0.357 18.982-15.661 34.273-34.613 34.611h-0.032zM858.897 149.060l-73.25 73.25c-6.254 7.289-15.476 11.878-25.771 11.878-18.719 0-33.894-15.175-33.894-33.894 0-10.294 4.589-19.516 11.833-25.732l0.045-0.038 73.25-73.25c5.883-5.050 13.591-8.124 22.016-8.124 18.719 0 33.894 15.175 33.894 33.894 0 8.425-3.074 16.133-8.162 22.062l0.038-0.045zM503.33 960c-18.97-0.357-34.254-15.641-34.611-34.577l-0.001-0.034v-102.4c0-19.125 15.504-34.628 34.628-34.628s34.628 15.504 34.628 34.628v0 102.4c-0.357 18.982-15.661 34.273-34.613 34.611h-0.032zM860.228 812.169c-6.111 6.123-14.56 9.91-23.893 9.91s-17.782-3.788-23.893-9.91v0l-73.25-73.25c-7.289-6.254-11.878-15.476-11.878-25.771 0-18.719 15.175-33.894 33.894-33.894 10.294 0 19.516 4.589 25.732 11.833l0.038 0.045 73.25 73.25c6.123 6.111 9.91 14.56 9.91 23.893s-3.788 17.782-9.91 23.893v0zM137.148 491.281h-102.4c-19.029-0.282-34.389-15.594-34.747-34.577l-0.001-0.034c-0.001-0.071-0.001-0.155-0.001-0.24 0-18.983 15.389-34.372 34.372-34.372 0.084 0 0.169 0 0.253 0.001h102.387c19.125 0 34.628 15.504 34.628 34.628s-15.504 34.628-34.628 34.628v0zM267.674 222.276c-6.111 6.123-14.56 9.91-23.893 9.91s-17.782-3.788-23.893-9.91v0l-73.25-73.25c-5.050-5.883-8.124-13.591-8.124-22.016 0-18.719 15.175-33.894 33.894-33.894 8.425 0 16.133 3.074 22.062 8.162l-0.045-0.038 73.25 73.25c6.123 6.111 9.91 14.56 9.91 23.893s-3.788 17.782-9.91 23.893v0zM267.674 738.953l-73.148 73.216c-5.883 5.050-13.591 8.124-22.016 8.124-18.719 0-33.894-15.175-33.894-33.894 0-8.425 3.074-16.133 8.162-22.062l-0.038 0.045 73.25-73.25c5.883-5.050 13.591-8.124 22.016-8.124 18.719 0 33.894 15.175 33.894 33.894 0 8.425-3.074 16.133-8.162 22.062l0.038-0.045z" />
<glyph unicode="&#xe93d;" glyph-name="tomorrow" d="M1022.464 807.561c-4.010 15.017-14.384 27.046-27.98 33.22l-0.317 0.129c-8.521 3.081-18.356 4.932-28.602 5.085l-0.070 0.001c-46.251 0.307-92.535 0.273-138.615 0.205h-44.817v33.28c0 6.076 0 12.117 0 18.193-0.472 15.655-13.275 28.165-29.001 28.165-0.533 0-1.062-0.014-1.588-0.043l0.073 0.003c-0.172 0.004-0.375 0.006-0.578 0.006-15.288 0-27.682-12.394-27.682-27.682 0-0.47 0.012-0.938 0.035-1.403l-0.003 0.065-0.273-49.835h-423.083v49.869c0.009 0.263 0.014 0.573 0.014 0.883 0 13.716-9.818 25.139-22.81 27.624l-0.176 0.028c-1.96 0.464-4.211 0.731-6.524 0.731-12.921 0-23.902-8.31-27.889-19.877l-0.062-0.207c-0.935-3.235-1.473-6.95-1.473-10.791 0-0.623 0.014-1.242 0.042-1.857l-0.003 0.087v-47.411h-79.326c-33.929 0-67.959 0-101.956 0.41h-1.468c-1.686 0.185-3.641 0.291-5.621 0.291-24.843 0-45.797-16.65-52.312-39.399l-0.094-0.384-0.478-822.238 0.683-3.413c6.376-17.267 19.76-30.64 36.608-36.862l0.427-0.138h947.78c17.29 6.335 30.684 19.718 36.897 36.575l0.137 0.426 0.683 822.818zM60.075 645.905v139.947h903.236v-139.947zM964.096 584.090q-0.478-290.133 0-580.096v0-1.365c-0.444 0-0.922 0-1.741 0q-205.312 0.171-410.624 0h-375.467c-38.741 0-77.551 0-116.224 0-0.118 0.010-0.254 0.015-0.393 0.015s-0.275-0.005-0.41-0.016l0.018 0.001v0.512q0.307 236.817 0.205 473.668v109.568h137.455q382.293 0 764.587 0.205c0.408-0.022 0.885-0.035 1.365-0.035s0.958 0.013 1.432 0.038l-0.066-0.003c-0.137-0.58-0.102-1.365-0.102-2.458zM573.918 435.029c-5.1 5.902-12.595 9.615-20.957 9.615-4.747 0-9.215-1.196-13.118-3.304l0.147 0.072c-8.645-5.014-14.81-13.489-16.626-23.48l-0.031-0.208c-0.002-0.137-0.003-0.298-0.003-0.46 0-10.283 4.089-19.61 10.73-26.446l-0.009 0.009c20.48-21.026 40.96-41.609 62.703-63.113l3.994-3.925h-97.621c-50.381 0-100.591 0-150.869 0-0.515 0.032-1.117 0.051-1.723 0.051-16.137 0-29.218-13.081-29.218-29.218 0-5.469 1.503-10.587 4.118-14.964l-0.074 0.133c5.867-9.246 16.049-15.294 27.645-15.294 0.145 0 0.29 0.001 0.435 0.003h0.217c63.386 0.512 126.703 0.444 190.089 0.307h56.866l-66.833-66.731c-7.020-5.588-11.481-14.133-11.481-23.719 0-8.143 3.218-15.534 8.452-20.971l-0.009 0.010c5.111-5.067 12.149-8.198 19.918-8.198 0.198 0 0.395 0.002 0.591 0.006h-0.029c0.034 0 0.074 0 0.114 0 9.627 0 18.339 3.915 24.632 10.239l0.001 0.001c25.873 26.419 52.087 52.531 78.234 78.507l35.84 35.772c7.274 5.673 11.907 14.438 11.907 24.286s-4.633 18.613-11.839 24.235l-0.068 0.051z" />
<glyph unicode="&#xe93e;" glyph-name="upcoming" d="M1022.464 807.561c-4.010 15.017-14.384 27.046-27.98 33.22l-0.317 0.129c-8.521 3.081-18.356 4.932-28.602 5.085l-0.070 0.001c-46.251 0.307-92.535 0.273-138.615 0.205h-44.817v33.28c0 6.076 0 12.117 0 18.193-0.472 15.655-13.275 28.165-29.001 28.165-0.533 0-1.062-0.014-1.588-0.043l0.073 0.003c-0.172 0.004-0.375 0.006-0.578 0.006-15.288 0-27.682-12.394-27.682-27.682 0-0.47 0.012-0.938 0.035-1.403l-0.003 0.065-0.273-49.835h-423.083v49.869c0.009 0.263 0.014 0.573 0.014 0.883 0 13.716-9.818 25.139-22.81 27.624l-0.176 0.028c-1.96 0.464-4.211 0.731-6.524 0.731-12.921 0-23.902-8.31-27.889-19.877l-0.062-0.207c-0.935-3.235-1.473-6.95-1.473-10.791 0-0.623 0.014-1.242 0.042-1.857l-0.003 0.087v-47.411h-79.326c-33.929 0-67.959 0-101.956 0.41h-1.468c-1.686 0.185-3.641 0.291-5.621 0.291-24.843 0-45.797-16.65-52.312-39.399l-0.094-0.384-0.478-822.238 0.683-3.413c6.376-17.267 19.76-30.64 36.608-36.862l0.427-0.138h947.78c17.29 6.335 30.684 19.718 36.897 36.575l0.137 0.426 0.683 822.818zM60.075 645.905v139.947h903.236v-139.947zM964.096 584.090q-0.478-290.133 0-580.096v0-1.365c-0.444 0-0.922 0-1.741 0q-205.312 0.171-410.624 0h-375.467c-38.741 0-77.551 0-116.224 0-0.118 0.010-0.254 0.015-0.393 0.015s-0.275-0.005-0.41-0.016l0.018 0.001v0.512q0.307 236.817 0.205 473.668v109.568h137.455q382.293 0 764.587 0.205c0.408-0.022 0.885-0.035 1.365-0.035s0.958 0.013 1.432 0.038l-0.066-0.003c-0.137-0.58-0.102-1.365-0.102-2.458zM462.814 176.435c5.56-5.561 13.241-9.001 21.726-9.001s16.166 3.44 21.726 9.001l227.908 227.908c5.567 5.563 9.011 13.251 9.011 21.743 0 16.976-13.761 30.737-30.737 30.737-8.484 0-16.164-3.437-21.726-8.994l-206.165-206.165-79.497 79.497c-5.565 5.565-13.252 9.006-21.743 9.006-16.982 0-30.749-13.767-30.749-30.749 0-8.491 3.442-16.178 9.006-21.743v0z" />
<glyph unicode="&#xe93f;" glyph-name="user" d="M850.398-64c-22.094 0-40.004 17.911-40.004 40.004v0c-0.194 156.765-127.224 283.795-283.97 283.989h-60.025c-156.765-0.194-283.795-127.224-283.989-283.97v-0.019c0-22.094-17.911-40.004-40.004-40.004s-40.004 17.911-40.004 40.004v0c0.233 200.937 163.061 363.765 363.976 363.998h60.028c200.937-0.233 363.765-163.061 363.998-363.976v-0.022c0-22.094-17.911-40.004-40.004-40.004v0zM762.402 690.005c0 149.114-120.881 269.995-269.995 269.995s-269.995-120.881-269.995-269.995c0-149.114 120.881-269.995 269.995-269.995v0c149.044 0.175 269.82 120.951 269.995 269.978v0.017zM682.394 690.005c0-104.926-85.060-189.986-189.986-189.986s-189.986 85.060-189.986 189.986c0 104.926 85.060 189.986 189.986 189.986v0c104.872-0.136 189.85-85.114 189.986-189.973v-0.013z" />
<glyph unicode="&#xe940;" glyph-name="add-project" horiz-adv-x="1525" d="M1523.928 784.95c10.779 86.232-53.895 161.684-140.126 172.463-10.779 0-21.558 0-32.337 0h-1174.905c-43.116 5.389-80.842-5.389-113.179-32.337s-53.895-64.674-59.284-107.789c0-10.779 0-21.558 0-32.337 0-296.421 0-382.653 0-679.074-10.779-86.232 53.895-161.684 140.126-172.463 0 0 0 0 0 0 10.779 0 21.558 0 32.337 0 167.074 0 447.326 0 614.4 0s393.432 0 560.505 0c5.389 0 10.779 0 16.168 0 80.842 0 150.905 59.284 156.295 140.126 0 10.779 0 21.558 0 32.337 0 301.811 0 382.653 0 679.074zM1448.475 95.097c0-43.116-32.337-80.842-80.842-86.232-5.389 0-10.779 0-16.168 0h-312.589v878.484h80.842c80.842 0 177.853 0 242.526 0 43.116 0 80.842-37.726 80.842-80.842 0 0 0 0 0-5.389 5.389-301.811 5.389-393.432 5.389-706.021v0 0zM968.812 887.35v-873.095h-409.6v873.095h409.6zM483.759 887.35v-878.484h-183.242c-48.505 0-102.4 0-134.737 0-21.558 0-43.116 5.389-59.284 21.558s-26.947 37.726-26.947 59.284c0 0 0 5.389 0 10.779 0 307.2 0 393.432 0 700.632-5.389 48.505 32.337 86.232 75.453 86.232 0 0 5.389 0 5.389 0 64.674 0 161.684 0 242.526 0h80.842zM122.664 698.718v-134.737c0-48.505 37.726-86.232 91.621-86.232h134.737c48.505 0 86.232 37.726 91.621 86.232v134.737c0 48.505-37.726 86.232-91.621 86.232h-134.737c-48.505 0-86.232-37.726-91.621-86.232zM365.191 698.718v-134.737c0-10.779-10.779-21.558-16.168-21.558h-134.737c-10.779 0-16.168 10.779-16.168 21.558v134.737c0 10.779 10.779 21.558 16.168 21.558h134.737c10.779 0 16.168-10.779 16.168-21.558zM699.338 477.75h134.737c48.505 0 86.232 37.726 91.621 86.232v134.737c0 48.505-37.726 86.232-91.621 86.232h-134.737c-48.505 0-86.232-37.726-91.621-86.232v-134.737c5.389-48.505 43.116-86.232 91.621-86.232zM683.17 698.718c0 10.779 10.779 21.558 16.168 21.558h134.737c10.779 0 16.168-10.779 16.168-21.558v-134.737c0-10.779-10.779-21.558-16.168-21.558h-134.737c-10.779 0-16.168 10.779-16.168 21.558v134.737zM349.022 407.687h-134.737c-48.505 0-86.232-37.726-91.621-86.232v-134.737c0-48.505 37.726-86.232 91.621-91.621h134.737c48.505 0 86.232 37.726 91.621 91.621v134.737c-5.389 48.505-43.116 86.232-91.621 86.232zM365.191 186.718c0-10.779-10.779-16.168-16.168-16.168h-134.737c-10.779 0-16.168 10.779-16.168 16.168v134.737c0 10.779 10.779 21.558 16.168 21.558h134.737c10.779 0 16.168-10.779 16.168-21.558v-134.737zM1319.128 784.95h-134.737c-48.505 0-86.232-37.726-91.621-86.232v-134.737c0-48.505 37.726-86.232 91.621-86.232h134.737c48.505 0 86.232 37.726 91.621 86.232v134.737c-5.389 48.505-43.116 86.232-91.621 86.232zM1335.296 563.981c0-10.779-10.779-21.558-16.168-21.558h-134.737c-10.779 0-16.168 10.779-16.168 21.558v134.737c0 10.779 10.779 21.558 16.168 21.558h134.737c10.779 0 16.168-10.779 16.168-21.558v-134.737zM1319.128 407.687h-134.737c-48.505 0-86.232-37.726-91.621-86.232v-134.737c0-48.505 37.726-86.232 91.621-91.621h134.737c48.505 0 86.232 37.726 91.621 91.621v134.737c-5.389 48.505-43.116 86.232-91.621 86.232zM1335.296 186.718c0-10.779-10.779-16.168-16.168-16.168h-134.737c-10.779 0-16.168 10.779-16.168 16.168v134.737c0 10.779 10.779 21.558 16.168 21.558h134.737c10.779 0 16.168-10.779 16.168-21.558v-134.737z" />
<glyph unicode="&#xe941;" glyph-name="drag" horiz-adv-x="1707" d="M0 960h341.333v-341.333h-341.333zM682.667 960h341.333v-341.333h-341.333zM1365.333 960h341.333v-341.333h-341.333zM0 277.333h341.333v-341.333h-341.333zM682.667 277.333h341.333v-341.333h-341.333zM1365.333 277.333h341.333v-341.333h-341.333z" />
<glyph unicode="&#xe942;" glyph-name="cross" d="M913.12-33.12c-24 0-40 8-56 24l-800 800c-32 32-32 80 0 112s80 32 112 0l800-800c32-32 32-80 0-112-16-16-32-24-56-24zM113.12-33.12c-24 0-40 8-56 24-32 32-32 80 0 112l800 800c32 32 80 32 112 0s32-80 0-112l-800-800c-16-16-32-24-56-24z" />
<glyph unicode="&#xe943;" glyph-name="project-time" horiz-adv-x="1117" d="M465.455 29.091c0.001 38.83 23.776 72.107 57.564 86.069l0.618 0.226v53.341h-360.727c-44.965 0.053-81.402 36.49-81.455 81.45v502.929c-46.966 11.030-81.406 52.547-81.455 102.115v0.006c0.053 57.818 46.909 104.674 104.722 104.727h907.641c57.818-0.053 104.674-46.909 104.727-104.722v-0.005c-0.048-49.574-34.488-91.090-80.744-101.98l-0.711-0.141v-502.924c-0.053-44.965-36.49-81.402-81.45-81.455h-360.732v-53.341c34.406-14.188 58.181-47.465 58.182-86.295v0c0-51.413-41.678-93.091-93.091-93.091v0c-51.413 0-93.091 41.678-93.091 93.091v0zM535.273 29.091c0-12.853 10.42-23.273 23.273-23.273v0c12.853 0 23.273 10.42 23.273 23.273v0c0 12.853-10.42 23.273-23.273 23.273v0c-12.853 0-23.273-10.42-23.273-23.273v0zM954.182 238.545c6.416 0.026 11.61 5.22 11.636 11.634v244.367h-58.182c-12.853 0-23.273 10.42-23.273 23.273v0c0 12.853 10.42 23.273 23.273 23.273v0h58.182v209.455h-407.273v-46.545c0-12.853-10.42-23.273-23.273-23.273v0c-12.853 0-23.273 10.42-23.273 23.273v0 46.545h-360.727v-209.455h58.182c12.853 0 23.273-10.42 23.273-23.273v0c0-12.853-10.42-23.273-23.273-23.273v0h-58.182v-244.41c0.026-6.416 5.22-11.61 11.634-11.636h349.094v46.545c0 12.853 10.42 23.273 23.273 23.273v0c12.853 0 23.273-10.42 23.273-23.273v0-46.545h395.636zM69.818 855.273c0-19.28 15.629-34.909 34.909-34.909v0h907.636c19.28 0 34.909 15.629 34.909 34.909v0c0 0 0 0 0 0 0 19.289-15.624 34.929-34.907 34.956h-907.639c-19.285-0.027-34.909-15.667-34.909-34.956 0 0 0 0 0 0v0zM521.635 368.733c-15.207 0.026-27.528 12.347-27.555 27.552v193.074c0.026 15.207 12.347 27.528 27.552 27.555h0.003c15.207-0.026 27.528-12.347 27.555-27.552v-165.472h110.359c15.224-0.026 27.555-12.374 27.555-27.601 0 0 0 0 0 0v0c-0.026-15.207-12.347-27.528-27.552-27.555h-0.003z" />
<glyph unicode="&#xe944;" glyph-name="review" horiz-adv-x="1112" d="M1037.746 543.020h-170.667v327.495c0 50.739-41.514 92.252-92.252 92.252h-682.667c-50.739 0-92.252-41.514-92.252-92.252v-502.775c0-50.739 41.514-92.252 92.252-92.252h64.577l46.126-193.73c4.613-18.45 23.063-27.676 41.514-23.063 4.613 0 13.838 4.613 18.45 9.225l170.667 207.568h87.64v-129.153c0-36.901 32.288-69.189 69.189-69.189h226.018l106.090-129.153c13.838-13.838 32.288-18.45 46.126-4.613 4.613 4.613 9.225 9.225 9.225 18.45l27.676 115.315h27.676c36.901 0 69.189 32.288 69.189 69.189v322.883c9.225 41.514-23.063 73.802-64.577 73.802zM419.655 344.677c-9.225 0-18.45-4.613-27.676-13.838l-138.378-166.054-36.901 156.829c-4.613 13.838-18.45 23.063-32.288 23.063h-92.252c-13.838 0-23.063 9.225-23.063 23.063v502.775c0 13.838 9.225 23.063 23.063 23.063 0 0 0 0 0 0h687.279c13.838 0 23.063-9.225 23.063-23.063v-502.775c0-13.838-9.225-23.063-23.063-23.063h-359.784zM1042.358 146.335c0 0 0-4.613 0 0l-55.351-4.613c-13.838 0-27.676-9.225-32.288-23.063l-18.45-78.414-73.802 92.252c-4.613 9.225-13.838 13.838-27.676 13.838h-239.856c0 0-4.613 0-4.613 4.613v129.153h189.117c50.739 0 92.252 41.514 92.252 92.252v106.090h170.667c0 0 4.613 0 4.613-4.613v-327.495zM539.583 427.705c-4.613 0-9.225 0-13.838 4.613l-92.252 46.126-92.252-46.126c-18.45-9.225-36.901-4.613-46.126 13.838-4.613 4.613-4.613 13.838-4.613 23.063l18.45 101.477-73.802 73.802c-13.838 13.838-13.838 32.288 0 46.126 4.613 4.613 13.838 9.225 18.45 9.225l101.477 13.838 46.126 92.252c9.225 18.45 27.676 23.063 46.126 13.838 9.225 0 13.838-9.225 18.45-13.838l46.126-92.252 101.477-13.838c18.45-4.613 32.288-18.45 27.676-36.901 0-9.225-4.613-13.838-9.225-18.45l-73.802-73.802 18.45-101.477c4.613-18.45-9.225-36.901-27.676-36.901-4.613-4.613-4.613-4.613-9.225-4.613v0zM332.016 644.497l36.901-36.901c9.225-9.225 9.225-18.45 9.225-27.676l-9.225-50.739 46.126 23.063c9.225 4.613 23.063 4.613 32.288 0l46.126-23.063-9.225 50.739c0 9.225 0 23.063 9.225 27.676l36.901 36.901-50.739 9.225c-9.225 0-18.45 9.225-23.063 18.45l-23.063 46.126-23.063-46.126c-4.613-9.225-13.838-18.45-23.063-18.45l-55.351-9.225z" />
<glyph unicode="&#xe945;" glyph-name="user2" horiz-adv-x="874" d="M424.585 460.488c66.602 0 129.041 24.976 174.829 74.927 95.74 95.74 95.74 253.919 0 353.821-95.74 95.74-253.919 95.74-353.821 0-95.74-95.74-95.74-253.919 0-353.821 49.951-45.789 116.553-74.927 178.992-74.927v0zM249.756 710.244c0 45.789 16.65 91.577 49.951 124.878 66.602 70.764 178.992 70.764 249.756 0 33.301-33.301 54.114-79.089 49.951-124.878 0-45.789-16.65-91.577-49.951-124.878-66.602-70.764-178.992-70.764-249.756-4.163 0 0 0 0 0 0-29.138 37.463-49.951 83.252-49.951 129.041zM820.033 248.195v0c-41.626 41.626-91.577 62.439-141.528 62.439h-474.537c-54.114 0-104.065-20.813-141.528-58.276l-4.163-4.163c-37.463-37.463-54.114-87.415-54.114-137.366v-133.203c0-20.813 16.65-37.463 37.463-33.301 20.813 0 33.301 16.65 33.301 33.301v133.203c0 70.764 54.114 124.878 124.878 124.878 0 0 0 0 0 0h474.537c70.764 0 124.878-54.114 124.878-124.878 0 0 0 0 0 0v-133.203c0-20.813 16.65-37.463 37.463-33.301 20.813 0 33.301 16.65 33.301 33.301v133.203c4.163 49.951-16.65 99.902-49.951 137.366z" />
<glyph unicode="&#xe946;" glyph-name="create-project" horiz-adv-x="1210" d="M1060.252 846.692h-400.54l-101.206 101.206c-6.752 7.485-16.485 12.169-27.312 12.169-0.357 0-0.712-0.005-1.067-0.015l0.052 0.001h-384.475c-80.816-1.62-145.71-67.516-145.71-148.568 0-0.443 0.002-0.885 0.006-1.327v0.068-724.506c-0.004-0.406-0.006-0.886-0.006-1.367 0-81.053 64.894-146.949 145.56-148.566l0.151-0.002h914.548c0.159-0.001 0.348-0.001 0.536-0.001 82.511 0 149.399 66.888 149.399 149.399 0 0.189 0 0.377-0.001 0.566v-0.029 611.198c-1.277 82.255-67.665 148.588-149.822 149.773l-0.113 0.001zM80.751 806.21c-0.073 1.152-0.115 2.499-0.115 3.856 0 35.838 29.024 64.897 64.849 64.954h0.005l368.571-4.070 93.067-93.067c4.808-7.354 11.76-12.957 19.961-15.974l0.28-0.090h432.883c28.267-0.835 52.325-18.017 63.114-42.384l0.18-0.455c-18.394 9.055-40.040 14.351-62.923 14.351-0.131 0-0.261 0-0.392-0.001h-914.528c-23.685-0.087-45.965-6.022-65.497-16.433l0.757 0.368v88.943zM1129.008 81.704v0c-1.151-37.512-31.249-67.629-68.645-68.807l-0.11-0.003h-914.548c-35.913 2.959-64.032 32.491-64.739 68.74l-0.001 0.070v501.906c-0.009 0.415-0.014 0.903-0.014 1.393 0 36.308 28.678 65.917 64.619 67.411l0.135 0.004h914.548c37.541-1.125 67.685-31.268 68.807-68.704l0.003-0.105v-501.906zM445.252 575.471h-210.444c-46.776-0.391-84.59-38.205-84.981-84.944v-20.278c0.391-46.776 38.205-84.59 84.944-84.981h210.481c46.208 1.76 83.221 38.772 84.976 84.817l0.005 0.164v20.241c-0.391 46.776-38.205 84.59-84.944 84.981h-0.037zM449.322 474.265c0.001-0.032 0.001-0.070 0.001-0.109 0-2.188-1.774-3.963-3.963-3.963-0.038 0-0.076 0.001-0.114 0.002h-210.438c-0.032-0.001-0.070-0.001-0.109-0.001-2.188 0-3.963 1.774-3.963 3.963 0 0.038 0.001 0.076 0.002 0.114v-0.006 20.455c-0.001 0.032-0.001 0.070-0.001 0.109 0 2.188 1.774 3.963 3.963 3.963 0.038 0 0.076-0.001 0.114-0.002h210.438c0.032 0.001 0.070 0.001 0.109 0.001 2.188 0 3.963-1.774 3.963-3.963 0-0.038-0.001-0.076-0.002-0.114v0.006z" />
</font>
</defs>
</svg>
